<svg width="40" height="40" viewBox="0 0 40 40" fill="none" xmlns="http://www.w3.org/2000/svg">
<circle cx="20" cy="20" r="20" fill="#7700A7"/>
<path d="M20 0L24.4903 13.8197H39.0211L27.2654 22.3607L31.7557 36.1803L20 27.6393L8.2443 36.1803L12.7346 22.3607L0.97887 13.8197H15.5097L20 0Z" fill="white"/>
<path d="M18.184 26V16.352H18.544V26H18.184ZM16.6 26V16.352H16.96V26H16.6ZM17.392 26V16.352H17.752V26H17.392ZM18.976 21.968V21.608H21.796C22.252 21.608 22.664 21.508 23.032 21.308C23.408 21.108 23.704 20.824 23.92 20.456C24.144 20.088 24.256 19.656 24.256 19.16C24.256 18.664 24.144 18.232 23.92 17.864C23.704 17.496 23.408 17.212 23.032 17.012C22.664 16.812 22.252 16.712 21.796 16.712H18.976V16.352H21.796C22.316 16.352 22.788 16.472 23.212 16.712C23.644 16.944 23.984 17.272 24.232 17.696C24.488 18.112 24.616 18.6 24.616 19.16C24.616 19.72 24.488 20.212 24.232 20.636C23.984 21.052 23.644 21.38 23.212 21.62C22.788 21.852 22.316 21.968 21.796 21.968H18.976ZM18.976 21.176V20.816H21.796C22.26 20.816 22.652 20.672 22.972 20.384C23.3 20.088 23.464 19.68 23.464 19.16C23.464 18.64 23.3 18.236 22.972 17.948C22.652 17.652 22.26 17.504 21.796 17.504H18.976V17.144H21.796C22.172 17.144 22.512 17.228 22.816 17.396C23.12 17.556 23.364 17.788 23.548 18.092C23.732 18.388 23.824 18.744 23.824 19.16C23.824 19.576 23.732 19.936 23.548 20.24C23.364 20.536 23.12 20.768 22.816 20.936C22.512 21.096 22.172 21.176 21.796 21.176H18.976ZM18.976 20.384V20.024H21.796C22.036 20.024 22.24 19.956 22.408 19.82C22.584 19.676 22.672 19.456 22.672 19.16C22.672 18.856 22.584 18.636 22.408 18.5C22.24 18.364 22.036 18.296 21.796 18.296H18.976V17.936H21.796C22.14 17.936 22.432 18.04 22.672 18.248C22.912 18.456 23.032 18.76 23.032 19.16C23.032 19.56 22.912 19.864 22.672 20.072C22.432 20.28 22.14 20.384 21.796 20.384H18.976ZM18.94 26V25.64H21.856C22.44 25.64 22.94 25.528 23.356 25.304C23.78 25.072 24.104 24.76 24.328 24.368C24.56 23.968 24.676 23.516 24.676 23.012C24.676 22.7 24.636 22.404 24.556 22.124C24.484 21.836 24.368 21.584 24.208 21.368C24.256 21.328 24.3 21.288 24.34 21.248C24.388 21.2 24.428 21.148 24.46 21.092C24.844 21.596 25.036 22.236 25.036 23.012C25.036 23.58 24.904 24.092 24.64 24.548C24.384 24.996 24.016 25.352 23.536 25.616C23.064 25.872 22.504 26 21.856 26H18.94ZM18.94 25.208V24.848H21.856C22.52 24.848 23.024 24.676 23.368 24.332C23.712 23.988 23.884 23.548 23.884 23.012C23.884 22.804 23.86 22.604 23.812 22.412C23.764 22.212 23.696 22.036 23.608 21.884C23.672 21.852 23.728 21.816 23.776 21.776C23.824 21.736 23.864 21.7 23.896 21.668C24.008 21.844 24.092 22.048 24.148 22.28C24.212 22.512 24.244 22.756 24.244 23.012C24.244 23.644 24.036 24.168 23.62 24.584C23.204 25 22.616 25.208 21.856 25.208H18.94ZM18.94 24.416V24.056H21.856C22.296 24.056 22.612 23.96 22.804 23.768C22.996 23.576 23.092 23.324 23.092 23.012C23.092 22.716 23.016 22.46 22.864 22.244C22.92 22.228 22.976 22.208 23.032 22.184C23.088 22.152 23.144 22.12 23.2 22.088C23.368 22.36 23.452 22.668 23.452 23.012C23.452 23.428 23.32 23.768 23.056 24.032C22.8 24.288 22.4 24.416 21.856 24.416H18.94Z" fill="black"/>
</svg>
