<?xml version="1.0" encoding="UTF-8" standalone="no"?>
<svg
   height="115mm"
   stroke-miterlimit="10"
   style="clip-rule:evenodd;fill-rule:nonzero;stroke-linecap:round;stroke-linejoin:round"
   version="1.1"
   viewBox="0 0 326.025 326.025"
   width="115mm"
   id="svg527"
   
   xmlns="http://www.w3.org/2000/svg"
  >

<g
   id="Layer-4"
   transform="translate(-54.006765,-219.0276)">
<path
   d="m 75.0168,517.244 c 0,-8.602 63.1622,-15.576 141.0772,-15.576 77.915,0 141.077,6.974 141.077,15.576 0,8.602 -63.162,15.575 -141.077,15.575 -77.915,0 -141.0772,-6.973 -141.0772,-15.575 z"
   fill="#a5a4a2"
   fill-rule="nonzero"
   opacity="1"
   stroke="#a5a4a2"
   stroke-linecap="butt"
   stroke-linejoin="round"
   stroke-width="1.52638"
   id="path276" />
</g>
<g
   id="Layer-1"
   transform="translate(-54.006765,-219.0276)">
<path
   d="m 206.125,245.375 c -61.041,1.126 -112.9495,34.811 -134.4062,82.156 0.3688,0.39 0.5987,0.893 0.5624,1.469 -0.031,0.492 -0.1478,0.902 -0.3437,1.344 -0.0582,0.131 -0.1275,0.285 -0.2187,0.468 -0.1832,0.375 -0.3444,0.843 -0.5001,1.407 -0.0747,0.271 -0.1402,0.45 -0.2812,1 -0.3279,1.279 -0.4802,1.911 -0.7813,2.687 -0.2185,0.564 -0.9004,1.802 -0.9062,1.813 -0.2213,0.392 -0.3339,0.574 -0.4375,0.781 -0.058,0.116 -0.2117,0.663 -0.2188,0.688 -0.079,0.271 -0.1511,0.434 -0.2187,0.624 -0.1135,0.32 -0.4305,0.987 -0.4375,1 -0.1601,0.316 -0.2127,0.418 -0.25,0.532 -0.0778,0.238 -0.248,1.021 -0.25,1.031 -0.1001,0.507 -0.1627,0.773 -0.25,1.094 -0.058,0.213 -0.215,0.677 -0.2187,0.687 -0.0936,0.27 -0.1294,0.39 -0.1563,0.5 -0.1831,0.747 -0.2775,1.491 -0.4063,2.813 -0.0164,0.169 -0.0147,0.172 -0.0312,0.343 -0.0843,0.878 -0.1207,1.278 -0.1875,1.782 -0.0047,0.035 -0.0286,0.547 -0.0313,0.625 -0.0273,0.792 -0.099,1.292 -0.4375,1.875 -0.3623,0.623 -1.0111,0.86 -1.6875,0.875 -0.11,0.277 -0.0653,0.54 -0.25,0.875 -0.0298,0.054 -0.0341,0.073 -0.0624,0.125 -0.0494,0.089 -0.0289,0.093 -0.0626,0.156 0.2945,0.265 0.5923,0.555 0.6876,0.969 0.2814,1.224 -0.0545,3.555 -1.5313,4.125 -0.0736,0.028 -0.1441,-0.019 -0.2187,0 -0.0472,0.226 -0.0752,0.43 -0.1876,0.75 -0.0426,0.121 -0.0771,0.167 -0.0937,0.219 -0.0243,0.075 -0.0323,0.104 -0.0313,0.093 0,10e-4 -7e-4,0.027 0,0.031 0.0107,0.057 0.0935,0.405 0.0938,0.407 0.1826,0.854 0.2137,1.275 0.0937,1.937 -0.0771,0.426 -0.1735,0.653 -0.4062,1.094 -0.0125,0.024 -0.0203,0.042 -0.0313,0.062 -0.0316,0.061 -0.0119,0.069 0,0.032 -0.1083,0.339 -0.1799,0.72 -0.2812,1.562 -0.0388,0.323 -0.0596,0.612 -0.0625,0.906 -0.007,-0.113 5e-4,-0.044 0,0.032 0.0021,0.033 -0.0031,0.064 0,0.125 0.0057,0.124 0.0072,0.222 0,0.343 -0.0093,0.145 -0.0095,0.135 -0.0625,0.407 -0.2173,2.895 -0.5,5.775 -0.5,8.719 0,72.172 66.317,130.687 148.125,130.687 81.808,0 148.125,-58.515 148.125,-130.687 0,-2.526 -0.283,-4.986 -0.469,-7.469 -0.45,-0.397 -0.783,-0.925 -0.75,-1.563 0.002,-0.033 -0.006,-0.124 -0.031,-0.281 -0.016,-0.104 -0.094,-0.509 -0.125,-0.656 -0.128,-0.337 -0.184,-0.509 -0.219,-0.844 -0.021,-0.204 -0.021,-0.351 -0.031,-0.656 -10e-4,-0.022 -0.023,-0.301 -0.031,-0.375 -0.014,-0.062 -0.021,-0.124 -0.031,-0.188 -0.029,-0.178 -0.044,-0.334 -0.032,-0.531 0.007,-0.119 0.039,-0.233 0.063,-0.344 -0.012,-0.058 -0.018,-0.133 -0.031,-0.187 -0.018,-0.075 -0.03,-0.12 -0.032,-0.125 0.018,0.047 0.047,0.106 0.094,0.187 0.011,-0.039 0.019,-0.086 0.031,-0.125 -0.084,-0.144 -0.101,-0.313 -0.156,-0.469 -0.094,-0.12 -0.097,-0.295 -0.156,-0.437 -10e-4,-0.01 0.001,-0.021 0,-0.031 -0.08,-0.202 -0.197,-0.383 -0.188,-0.625 0.02,-0.552 -0.024,-1.062 -0.125,-1.375 -0.037,-0.116 -0.267,-0.804 -0.312,-0.938 -0.225,-0.668 -0.367,-1.18 -0.438,-1.781 -0.054,-0.457 -0.035,-0.752 0.032,-1.375 0.004,-0.045 -0.005,-0.051 0,-0.094 0.028,-0.276 0.037,-0.375 0.031,-0.406 -0.042,-0.206 -0.302,-0.938 -0.313,-0.969 -0.322,-0.877 -0.473,-1.354 -0.531,-2.031 -0.044,-0.51 -0.028,-0.918 -0.031,-1.781 -10e-4,-0.171 0,-0.252 0,-0.344 -0.007,-0.971 -0.056,-1.515 -0.188,-2 -0.039,-0.145 -0.305,-0.672 -0.312,-0.687 -0.232,-0.495 -0.324,-0.752 -0.438,-1.126 -0.094,-0.309 -0.217,-0.99 -0.218,-1 -0.034,-0.228 -0.047,-0.323 -0.063,-0.374 -0.033,-0.105 -0.169,-0.452 -0.187,-0.501 -0.213,-0.548 -0.318,-0.826 -0.407,-1.218 -0.061,-0.27 -0.066,-0.465 -0.093,-0.813 -10e-4,-0.006 0.005,-0.064 0,-0.125 -0.009,-0.01 -0.029,-0.028 -0.032,-0.031 -0.422,-0.528 -0.716,-1.287 -0.875,-2 -0.234,-1.051 -0.328,-1.665 -0.187,-2.438 0.032,-0.174 0.126,-0.275 0.187,-0.406 -12.773,-36.272 -43.115,-65.645 -82.219,-80.718 -0.205,0.001 -0.398,-0.01 -0.593,-0.032 -0.603,-0.066 -0.982,-0.195 -1.75,-0.5 -0.024,-0.009 -0.04,0.009 -0.063,0 -0.286,-0.113 -0.409,-0.186 -0.531,-0.218 -0.056,-0.015 -0.4,-0.031 -0.406,-0.032 -0.45,-0.04 -0.681,-0.078 -1,-0.156 -1.377,-0.337 -2.564,-0.738 -4.719,-1.562 -1.301,-0.498 -1.294,-0.52 -1.75,-0.688 -0.075,-0.027 -0.528,-0.112 -0.594,-0.125 -0.47,-0.094 -0.804,-0.176 -1.187,-0.344 -0.157,-0.069 -0.207,-0.093 -0.281,-0.125 -0.302,-0.128 -0.48,-0.197 -0.626,-0.218 -0.099,-0.015 -0.541,-0.029 -0.593,-0.032 -1.198,-0.064 -1.983,-0.306 -2.719,-0.937 -0.113,-0.051 -0.226,-0.099 -0.344,-0.125 -0.103,0.005 -0.212,0.036 -0.312,0.031 -0.164,-0.008 -0.238,-0.029 -0.438,-0.063 -0.028,-0.004 -0.038,0 -0.031,0 -0.181,-0.019 -0.813,-0.031 -0.875,-0.031 -0.399,0.004 -1.446,0.003 -1.562,0 -0.844,-0.024 -1.395,-0.072 -2,-0.187 -0.373,-0.071 -1.143,-0.339 -1.157,-0.344 -0.34,-0.122 -0.458,-0.171 -0.562,-0.188 -0.198,-0.031 -1.124,-0.11 -1.25,-0.124 -1.556,-0.177 -2.599,-0.501 -3.594,-1.313 -0.078,-0.064 -0.059,-0.177 -0.125,-0.25 -0.046,-0.003 -0.072,0.004 -0.125,0 -0.349,-0.026 -0.449,-0.032 -0.531,-0.031 -0.399,0.004 -0.914,0.033 -1.438,0.125 -0.047,0.008 -0.103,0.04 -0.218,0.062 -0.241,0.046 -0.384,0.073 -0.563,0.094 -0.357,0.043 -0.681,0.049 -1.031,0 -0.262,-0.037 -0.741,-0.185 -0.75,-0.187 -0.087,-0.027 -0.111,-0.034 -0.094,-0.032 -0.005,-0.001 -0.16,-0.029 -0.188,-0.031 -0.331,-0.024 -0.555,-0.041 -0.843,-0.125 -0.188,-0.054 -0.583,-0.214 -0.594,-0.219 -0.18,-0.067 -0.245,-0.086 -0.281,-0.093 -0.217,-0.044 -0.44,-0.056 -0.782,-0.094 -0.096,-0.011 -0.468,-0.052 -0.562,-0.063 -0.129,-0.003 -0.191,-0.025 -0.281,-0.031 -0.655,-0.043 -1.13,-0.169 -1.657,-0.688 -0.107,-0.105 -0.198,-0.205 -0.281,-0.312 -0.565,-0.096 -1.142,-0.279 -1.906,-0.594 -0.264,-0.108 -0.376,-0.141 -0.5,-0.187 -0.208,-0.078 -0.356,-0.106 -0.469,-0.125 -0.454,-0.08 -0.871,-0.075 -1.968,0.094 -0.109,0.016 -0.139,0.014 -0.25,0.031 -1.606,0.243 -2.558,0.268 -3.75,-0.094 0.067,0.021 0.052,0.037 0,0.031 -0.023,-0.002 -0.036,0.003 -0.063,0 -0.603,-0.07 -1.002,-0.187 -1.5,-0.562 -0.107,-0.081 -0.101,-0.219 -0.187,-0.313 -1.218,-0.068 -2.4,-0.239 -3.626,-0.281 -0.104,-0.004 -0.208,0.003 -0.312,0 -0.352,0.008 -0.697,0.009 -1.125,0 -0.025,0 -0.135,0.001 -0.187,0 -0.009,0 -0.023,0 -0.032,0 -0.4,0.063 -0.74,0.04 -1.187,0 -0.094,-0.008 -0.406,-0.029 -0.469,-0.031 -0.064,-0.003 -0.4,0.026 -0.438,0.031 -0.274,0.034 -0.404,0.051 -0.593,0.062 -0.085,0.006 -0.178,-0.005 -0.313,0 -0.189,0.219 -0.353,0.462 -0.625,0.594 -0.385,0.187 -0.632,0.212 -1,0.219 -0.038,0.001 -0.084,-0.003 -0.125,0 -0.16,0.01 -0.276,0.032 -0.406,0.031 -0.839,-0.002 -1.562,-0.312 -2.125,-1.031 z"
   fill="#f6b8ae"
   fill-rule="nonzero"
   opacity="1"
   stroke="#f6b8ae"
   stroke-linecap="butt"
   stroke-linejoin="round"
   stroke-width="4"
   id="path279" />
<path
   d="m 208.216,476.471 c 0.547,-7.851 7.356,-13.771 15.207,-13.224 l 13.627,0.951 c 7.851,0.547 13.772,7.356 13.224,15.207 l -2.335,33.483 c -0.548,7.851 -7.356,13.772 -15.207,13.224 l -13.627,-0.95 c -7.851,-0.548 -13.772,-7.356 -13.225,-15.207 z"
   fill="#f6b8ae"
   fill-rule="nonzero"
   opacity="1"
   stroke="#f6b8ae"
   stroke-linecap="butt"
   stroke-linejoin="round"
   stroke-width="3.77082"
   id="path281" />
<path
   d="m 304.438,244.375 c -0.641,0.055 -1.29,0.214 -1.938,0.344 -0.004,-0.002 -0.062,0.069 -0.062,0.062 -0.005,0.002 -0.046,0.024 -0.063,0.031 -0.003,0.002 -0.047,0.025 -0.063,0.032 -0.004,0.005 -0.026,-0.005 -0.031,0 -0.01,0.01 -0.021,0.021 -0.031,0.031 -0.041,0.039 -0.078,0.085 -0.125,0.125 -0.113,0.096 -0.222,0.162 -0.344,0.25 -0.013,0.01 -0.11,0.113 -0.125,0.125 -0.098,0.081 -0.166,0.147 -0.25,0.187 -0.129,0.063 -0.225,-0.07 -0.344,-0.124 -0.029,0.011 -0.031,0.055 -0.062,0.062 -0.036,0.008 -0.054,-0.001 -0.094,0 -0.131,0.041 -0.698,0.279 -0.781,0.312 -0.213,0.086 -0.526,0.162 -0.781,0.219 -0.444,0.232 -0.895,0.404 -1.656,0.594 -0.112,0.028 -0.109,0.004 -0.219,0.031 -0.116,0.078 -0.23,0.107 -0.344,0.188 -0.054,0.052 -0.023,0.159 -0.094,0.187 -0.074,0.03 -0.119,0.049 -0.219,0.063 -0.006,0.003 -0.024,-0.003 -0.031,0 -0.05,0.024 -0.036,0.069 -0.093,0.094 -0.122,0.052 -0.383,0.128 -0.375,0.124 -0.176,0.092 -0.419,0.21 -0.438,0.219 -0.129,0.064 -0.274,0.166 -0.406,0.219 0.006,-0.003 -0.086,0.057 -0.094,0.062 -0.112,0.071 -0.182,0.097 -0.281,0.126 -0.025,0.007 -0.037,-0.036 -0.063,-0.032 -0.126,0.058 -0.247,0.1 -0.375,0.156 -5.404,3.234 -10.424,8.403 -13.844,15.376 -7.267,14.818 -4.747,30.991 5.657,36.093 10.403,5.102 24.733,-2.775 32,-17.593 1.588,-3.24 2.641,-6.545 3.312,-9.782 -0.142,-0.05 -0.347,-0.081 -0.375,-0.218 -0.016,-0.092 -0.031,-0.088 -0.031,-0.126 0,-0.075 0.013,-0.147 0.031,-0.218 0.006,-0.022 0.024,-0.04 0.032,-0.063 0.006,-0.02 -0.008,-0.04 0,-0.062 0.012,-0.034 0.059,-0.147 0.062,-0.157 0.049,-0.182 0.096,-0.387 0.125,-0.593 0.025,-0.176 0.077,-0.8 0.094,-1 0.005,-0.062 0.03,-0.261 0.031,-0.344 0,-0.067 -0.029,-0.123 -0.031,-0.25 -0.008,-0.387 0.021,-0.572 0.062,-0.813 0.028,-0.161 0.057,-0.253 0.157,-0.437 0.002,-0.005 0.051,-0.129 0.062,-0.156 0.029,-0.075 0.068,-0.155 0.094,-0.281 0.014,-0.069 0.038,-0.142 0.062,-0.282 0.055,-0.312 0.065,-0.613 0.094,-1.094 0.008,-0.13 0.048,-0.752 0.062,-0.937 0.009,-0.106 0.061,-0.36 0.063,-0.375 0.036,-0.259 0.031,-0.373 0.031,-0.5 0,-0.088 -0.03,-0.367 -0.031,-0.375 -0.02,-0.219 -0.004,-0.326 0,-0.469 0.016,-0.639 -0.044,-1.282 -0.156,-2.094 -0.016,-0.112 0.007,-0.18 0.031,-0.281 -0.006,-0.033 0.062,-0.03 0.063,-0.062 -0.903,-6.845 -4.146,-12.484 -9.532,-15.125 -2.601,-1.276 -5.424,-1.722 -8.343,-1.469 z"
   fill="#f6b8ae"
   fill-rule="nonzero"
   opacity="1"
   stroke="#f6b8ae"
   stroke-linecap="butt"
   stroke-linejoin="round"
   stroke-width="4"
   id="path283" />
<path
   d="m 74.3125,247.031 c -4.198,-0.169 -7.4524,0.886 -9.3125,3.188 7e-4,0.041 0.0037,0.082 0,0.125 -7e-4,0.017 -0.0306,0.047 -0.0312,0.062 -7e-4,0.01 7e-4,0.022 0,0.032 -0.0014,0.028 7e-4,0.099 0,0.124 0.398,1.007 0.6484,2.096 0.6875,3.251 0.0647,1.91 -0.3875,3.825 -1.375,5.531 2.1785,7.078 9.2586,15.885 19.5937,23.219 15.4069,10.932 31.788,14.304 36.594,7.531 4.806,-6.774 -3.781,-21.131 -19.188,-32.063 -9.6291,-6.832 -19.6404,-10.705 -26.9685,-11 z"
   fill="#f6b8ae"
   fill-rule="nonzero"
   opacity="1"
   stroke="#f6b8ae"
   stroke-linecap="butt"
   stroke-linejoin="round"
   stroke-width="4"
   id="path285" />
<g
   opacity="1"
   id="g289">
<path
   d="m 104.735,478.542 c -0.769,-3.819 1.727,-7.532 5.555,-8.26 l 19.944,-3.797 c 3.771,-0.718 7.417,1.734 8.174,5.496 l 7.158,35.556 c 0.769,3.819 -1.727,7.532 -5.555,8.261 l -19.944,3.796 c -3.771,0.718 -7.417,-1.733 -8.174,-5.496 z"
   fill="#f6b8ae"
   fill-rule="nonzero"
   opacity="1"
   stroke="#f6b8ae"
   stroke-linecap="butt"
   stroke-linejoin="round"
   stroke-width="4"
   id="path287" />
</g>
<g
   opacity="1"
   id="g295">
<path
   d="m 250.37,503.541 c 1.259,-0.944 0.008,3.382 -0.959,4.624"
   fill="#f6b8ae"
   fill-rule="nonzero"
   stroke="none"
   id="path291" />
<path
   d="m 251.293,502.198 c -0.504,-0.006 -1.09,0.165 -1.547,0.419 -0.332,0.224 -0.322,0.819 0.023,1.33 0.265,0.393 0.65,0.62 0.965,0.603 -0.33,0.107 -0.6,0.182 -0.998,0.071 -0.065,-0.018 -0.122,-0.058 -0.176,-0.103 0.072,0.232 0.105,0.549 0.124,0.658 0.181,1.081 0.076,2.027 -0.537,2.937 -0.018,0.095 0.085,0.195 0.231,0.224 0.145,0.029 0.279,-0.025 0.297,-0.12 0.918,-1.373 2.206,-2.926 2.633,-4.55 0.282,-1.069 -0.278,-1.459 -1.015,-1.469 z m -1.733,2.32 c -0.037,-0.119 -0.084,-0.216 -0.146,-0.248 -0.05,-0.026 0.011,0.123 0.051,0.162 0.03,0.029 0.062,0.059 0.095,0.086 z"
   fill="#f6b8ae"
   stroke="none"
   id="path293" />
</g>
<g
   opacity="1"
   id="g301">
<path
   d="m 249.891,504.077 c 0.616,-0.068 0.287,1.345 -0.057,1.861"
   fill="#f6b8ae"
   fill-rule="nonzero"
   stroke="none"
   id="path297" />
<path
   d="m 250.258,502.697 c -0.422,0.008 -0.911,0.363 -1.214,0.925 -0.264,0.491 -0.318,1.013 -0.176,1.376 0.195,-0.124 1.13,0.163 0.69,0.907 -0.011,0.099 0.102,0.194 0.255,0.212 0.152,0.018 0.285,-0.047 0.297,-0.146 0.55,-0.943 2.696,-2.662 0.482,-3.196 -0.103,-0.055 -0.216,-0.08 -0.334,-0.078 z m -1.39,2.301 c -0.08,0.05 -0.035,0.169 0.275,0.354 -0.124,-0.081 -0.216,-0.204 -0.275,-0.354 z m 0.275,0.354 c 0.015,0.01 0.031,0.019 0.047,0.028 -0.017,-0.01 -0.031,-0.019 -0.047,-0.028 z"
   fill="#f6b8ae"
   stroke="none"
   id="path299" />
</g>
<path
   d="m 296.795,431.165 c 0.589,-5.251 5.324,-9.03 10.575,-8.441 l 14.346,1.611 c 5.251,0.589 9.03,5.324 8.441,10.575 l -7.344,65.417 c -0.589,5.251 -5.324,9.031 -10.575,8.441 l -14.345,-1.61 c -5.252,-0.59 -9.031,-5.324 -8.441,-10.576 z"
   fill="#f6b8ae"
   fill-rule="nonzero"
   opacity="1"
   stroke="#f6b8ae"
   stroke-linecap="butt"
   stroke-linejoin="round"
   stroke-width="3.77938"
   id="path303" />
</g>
<g
   id="Layer-6"
   transform="translate(-54.006765,-219.0276)">
<path
   d="m 354.86,364.747 -3.238,9.298 -2.844,8.486 -5.757,12.947 -5.818,11.987 -5.979,8.402 -4.653,5.79 -3.955,5.033 -9.71,10.97 -13.27,10.926 -11.252,8.462 -13.374,8.141 -12.76,5.688 -7.334,1.955 m -57.203,8.144 H 186.9 170.493 l -18.727,-2.764 -16.117,-2.738 -18.548,-4.597 -8.851,-4.631 -7.628,-3.99"
   fill="none"
   opacity="1"
   stroke="#dd796a"
   stroke-linecap="round"
   stroke-linejoin="round"
   stroke-width="3.77938"
   id="path306" />
<path
   d="m 354.86,370.549 -7.077,43.482"
   fill="none"
   opacity="1"
   stroke="#dd796a"
   stroke-linecap="round"
   stroke-linejoin="round"
   stroke-width="6"
   id="path308" />
<path
   d="m 349.665,386.03 -12.938,41.764"
   fill="none"
   opacity="1"
   stroke="#dd796a"
   stroke-linecap="round"
   stroke-linejoin="round"
   stroke-width="6"
   id="path310" />
<path
   d="m 341.662,402.162 -15.828,33.111"
   fill="none"
   opacity="1"
   stroke="#dd796a"
   stroke-linecap="round"
   stroke-linejoin="round"
   stroke-width="6"
   id="path312" />
<path
   d="m 348.87,416.045 -15.122,27.129"
   fill="none"
   opacity="1"
   stroke="#dd796a"
   stroke-linecap="round"
   stroke-linejoin="round"
   stroke-width="6"
   id="path314" />
<path
   d="m 347.24,406.912 -21.027,37.82"
   fill="none"
   opacity="1"
   stroke="#dd796a"
   stroke-linecap="round"
   stroke-linejoin="round"
   stroke-width="6"
   id="path316" />
<path
   d="m 117.454,473.247 19.562,8.792"
   fill="none"
   opacity="1"
   stroke="#dd796a"
   stroke-linecap="round"
   stroke-linejoin="round"
   stroke-width="6"
   id="path318" />
<path
   d="m 331.224,421.657 -24.764,26.14"
   fill="none"
   opacity="1"
   stroke="#dd796a"
   stroke-linecap="round"
   stroke-linejoin="round"
   stroke-width="6"
   id="path320" />
<path
   d="m 333.748,443.174 -38.854,37.802"
   fill="none"
   opacity="1"
   stroke="#dd796a"
   stroke-linecap="round"
   stroke-linejoin="round"
   stroke-width="6"
   id="path322" />
<path
   d="m 99.5497,463.212 30.5123,22.153"
   fill="none"
   opacity="1"
   stroke="#dd796a"
   stroke-linecap="round"
   stroke-linejoin="round"
   stroke-width="6"
   id="path324" />
<g
   opacity="1"
   id="g328">
<path
   d="m 135.169,474.102 c -0.565,-0.008 -1.106,0.066 -1.592,0.269 -0.36,0.15 -0.734,0.289 -1.074,0.481 -2.091,-0.135 -4.021,0.315 -5.323,2.525 -0.461,0.783 -0.412,1.12 -0.344,2.104 0.047,0.673 0.81,1.482 1.292,1.889 0.356,0.301 0.737,0.562 1.134,0.797 -0.012,0.13 0.006,0.292 -0.008,0.405 -0.054,0.448 0.058,0.832 0.264,1.167 -0.094,0.063 -0.189,0.126 -0.284,0.197 -0.15,0.112 -0.304,0.24 -0.455,0.375 -0.56,0.166 -1.03,0.536 -1.299,1.252 -0.009,0.023 -0.034,0.062 -0.04,0.085 -0.061,0.078 0.001,0.483 0.023,0.549 0.048,0.146 0.142,0.265 0.249,0.373 0.205,1.111 1.754,1.618 3.274,1.89 0.391,0.194 0.822,0.399 1.252,0.604 0.252,0.231 0.508,0.459 0.766,0.681 0.277,0.238 0.56,0.471 0.845,0.7 0.883,0.71 1.798,1.377 2.742,2.003 0.633,0.42 1.253,0.808 1.912,1.187 2.262,1.299 5.197,2.707 7.81,2.234 0.001,10e-4 0.001,0 0.002,0 0.066,0.031 0.132,0.064 0.199,0.095 2.314,1.048 5.078,1.212 6.571,-0.981 0.356,0.655 2.175,1.012 2.509,1.125 0.022,0.008 0.044,0.014 0.065,0.022 1.123,0.687 2.412,1.37 3.615,1.148 0.37,0.105 0.742,0.203 1.115,0.298 0.352,0.174 0.679,0.33 1.148,0.544 1.642,0.751 3.946,1.745 5.711,0.823 0.608,-0.318 1.29,-0.958 1.343,-1.692 0.081,-1.12 -1.932,-1.632 -2.708,-1.85 -0.729,-0.205 -1.464,-0.391 -2.2,-0.567 0.301,-0.209 0.6,-0.419 0.883,-0.653 0.089,-0.073 -0.291,-0.918 -0.315,-0.986 -0.445,-1.247 -0.557,-2.191 -2.113,-2.447 -1.306,-0.215 -2.647,-0.573 -3.965,-0.649 -1.425,-0.082 -2.904,0.027 -4.347,0.084 -0.587,-0.246 -1.179,-0.484 -1.777,-0.71 0.376,-0.266 0.742,-0.583 1.081,-0.951 1.716,-1.862 2.124,-4.275 0.914,-5.39 -0.432,-0.197 -0.856,-0.362 -1.278,-0.51 0.316,-0.283 0.612,-0.589 0.902,-0.893 0.44,-0.46 0.729,-1.219 0.81,-1.86 0.133,-1.048 -0.386,-1.804 -1.181,-2.361 -0.791,-1.175 -3.034,-1.601 -4.082,-1.759 -0.591,-0.09 -1.154,-0.155 -1.76,-0.221 -0.91,-0.098 -3.268,-0.496 -4.501,-0.253 0,0 -0.001,0 -0.002,0 -0.936,-0.059 -1.877,-0.081 -2.803,-0.208 -1.357,-0.187 -3.282,-0.942 -4.98,-0.965 z m 21.67,17.449 c 0.194,0.001 0.389,0.001 0.583,0.012 0.796,0.045 1.572,0.264 2.359,0.394 0.408,0.067 0.815,0.133 1.223,0.2 0.247,0.041 0.592,0.028 0.797,0.181 0.258,0.192 0.397,0.515 0.499,0.875 -1.32,-0.349 -2.663,-0.662 -4.013,-0.931 -0.52,-0.284 -1.012,-0.518 -1.374,-0.697 -0.024,-0.012 -0.05,-0.022 -0.074,-0.034 z m 6.305,4.824 c 0.559,0.138 1.116,0.282 1.671,0.438 0.51,0.143 1.031,0.329 1.502,0.573 0.155,0.081 0.317,0.172 0.442,0.295 0.002,0.002 0.004,0.007 0.006,0.009 -0.114,0.077 -0.149,0.146 -0.475,0.138 -0.404,-0.01 -0.802,-0.092 -1.191,-0.195 -0.756,-0.201 -1.489,-0.491 -2.206,-0.811 0.006,-0.049 0.002,-0.096 -0.013,-0.142 0.077,-0.054 0.243,-0.148 0.177,-0.177 0.026,-0.002 0.057,-0.058 0.087,-0.128 z"
   fill="#dd796a"
   stroke="none"
   id="path326" />
</g>
<g
   opacity="1"
   id="g332">
<path
   d="m 153.624,478.723 c -1.264,0.016 -2.475,0.378 -3.528,1.385 -0.534,0.51 -0.913,1.227 -0.92,1.972 -0.076,0.129 -0.147,0.26 -0.202,0.401 -0.126,0.324 0.066,0.676 0.255,1.003 -0.013,0.018 -0.024,0.038 -0.037,0.057 0,0 -0.001,0 -0.001,10e-4 -1.263,1.102 -2.178,2.583 -1.793,4.247 0.288,1.245 1.505,1.867 2.797,2.217 1.17,1.187 2.818,2.039 4.225,2.615 0.464,0.19 0.937,0.358 1.412,0.515 0.19,0.137 0.429,0.258 0.692,0.368 0.481,1.307 1.76,2.629 2.548,3.216 2.471,1.839 6.026,2.984 9.222,2.634 0.566,0.18 1.131,0.217 1.58,-0.106 0.615,0.109 1.23,0.215 1.855,0.285 0.796,0.09 1.648,0.171 2.249,-0.497 0.194,-0.216 0.252,-0.413 0.225,-0.594 0.367,0.167 0.725,0.329 1.101,0.502 0.968,0.444 3.047,1.847 3.714,0.148 0.515,-1.311 -2.374,-2.131 -3.195,-2.4 -0.36,-0.118 -0.724,-0.229 -1.086,-0.344 -0.42,-0.133 -0.843,-0.261 -1.265,-0.387 -0.013,-0.113 -0.058,-0.216 -0.125,-0.31 0.025,-0.01 0.054,-0.015 0.077,-0.026 0.756,-0.344 1.273,-0.759 1.753,-1.407 0.291,-0.392 0.536,-0.84 0.607,-1.33 0.029,-0.204 0.026,-0.391 -0.009,-0.564 0.291,-0.038 0.568,-0.11 0.803,-0.242 0.041,-0.023 0.071,-0.049 0.108,-0.072 0.176,0.043 0.352,0.087 0.529,0.13 1.634,0.404 3.27,0.805 4.908,1.193 0.537,0.127 1.364,0.513 1.965,0.358 0.312,-0.08 0.678,-0.234 0.629,-0.29 0.048,0.014 0.297,-0.292 0.387,-0.562 0.026,-0.079 0.014,-0.168 0.003,-0.25 -0.043,-0.334 -0.636,-0.424 -0.849,-0.485 -0.469,-0.133 -0.938,-0.265 -1.407,-0.399 -0.217,-0.061 -0.432,-0.123 -0.649,-0.184 -0.257,-0.074 -0.514,-0.147 -0.771,-0.221 0.045,-0.303 -0.045,-0.57 -0.247,-0.655 -0.814,0.016 -1.611,-0.024 -2.402,-0.106 -0.205,-0.059 -0.411,-0.118 -0.616,-0.177 -0.344,-0.1 -0.689,-0.2 -1.033,-0.3 -0.268,-0.078 -0.537,-0.156 -0.805,-0.235 -0.157,-0.045 -0.319,-0.104 -0.481,-0.159 0.463,-0.139 0.938,-0.268 1.324,-0.55 0.793,-0.578 1.466,-1.312 2.111,-2.052 0.251,-0.288 0.502,-1.237 0.549,-1.595 0.329,-2.501 -2.285,-3.576 -4.252,-4.077 -0.292,-0.074 -0.587,-0.138 -0.882,-0.2 -1.005,-0.277 -2.043,-0.407 -2.727,-0.484 -0.589,-0.066 -1.303,-0.123 -1.893,-0.161 -0.133,-0.008 -0.309,-0.012 -0.466,-0.02 -1.409,-0.73 -3.158,-1.102 -4.315,-1.31 -1.11,-0.199 -2.237,-0.326 -3.364,-0.379 -1.677,-0.078 -3.47,0.011 -5.194,0.366 -0.039,-0.011 -0.08,-0.022 -0.119,-0.032 -0.998,-0.267 -2.012,-0.464 -2.995,-0.451 z"
   fill="#dd796a"
   stroke="none"
   id="path330" />
</g>
<g
   opacity="1"
   id="g336">
<path
   d="m 183.834,484.475 c -3.312,-0.06 -6.651,0.657 -9.083,2.996 -0.154,0.148 -0.301,0.306 -0.445,0.466 -2.458,1.088 -5.415,3.71 -4.791,6.622 0.025,0.117 0.062,0.23 0.105,0.34 -0.19,0.009 -0.379,0.026 -0.568,0.061 -1.673,0.309 -3.962,1.831 -3.877,3.814 0.022,0.521 0.294,0.858 0.693,1.074 0.504,0.943 2.411,1.024 3.297,1.13 0.339,0.041 0.678,0.083 1.017,0.124 0.339,0.041 0.679,0.081 1.019,0.122 0.345,0.041 0.69,0.086 1.036,0.124 0.743,0.081 1.487,0.156 2.231,0.23 0.625,0.222 1.262,0.393 1.914,0.476 2.499,1.113 5.355,2.546 8.086,2.623 0.19,0.395 0.403,0.827 0.741,1.048 0.333,0.219 0.79,0.144 1.133,-0.006 0.123,-0.055 0.431,-0.099 0.369,-0.198 0.107,-0.027 0.513,-0.589 0.551,-0.672 0.009,-0.021 0.013,-0.047 0.021,-0.069 1.308,0.092 2.59,-0.046 3.65,-0.612 0.459,0.004 0.919,0.007 1.379,0.015 0.832,0.015 1.663,0.032 2.495,0.049 0.499,0.011 1.438,0.031 1.946,0.042 0.253,0.005 0.641,0.049 1.059,0.067 0.403,0.27 0.861,0.307 1.393,-0.136 0.295,-0.103 0.542,-0.27 0.688,-0.541 0.091,-0.17 0.087,-0.384 0.064,-0.575 -0.021,-0.178 -0.109,-0.229 -0.216,-0.241 -0.018,-0.44 -0.108,-0.883 -0.147,-1.135 -0.258,-1.645 -0.671,-3.268 -1.059,-4.887 -0.047,-0.196 -0.091,-0.392 -0.138,-0.588 0.124,-0.556 0.049,-1.343 -0.182,-1.932 0.343,-0.635 0.562,-1.33 0.594,-2.082 0.148,-3.547 -4.369,-5.475 -7.079,-6.366 -1.14,-0.375 -2.308,-0.671 -3.487,-0.897 -1.405,-0.27 -2.904,-0.458 -4.409,-0.486 z m 12.662,11.869 c 0.006,0.027 0.012,0.054 0.019,0.081 -0.083,0.025 -0.153,0.053 -0.228,0.083 0.069,-0.055 0.141,-0.107 0.209,-0.164 z m -1.08,0.784 c -0.02,0.029 -0.037,0.059 -0.055,0.089 0.007,-0.022 0.015,-0.044 0.022,-0.067 0.011,-0.007 0.022,-0.015 0.033,-0.022 z m -0.194,0.471 c -0.006,0.034 -0.015,0.065 -0.018,0.1 -0.09,0.89 1.904,1.718 2.152,2.514 0.017,0.055 0.028,0.116 0.039,0.179 -0.367,-0.581 -0.813,-1.142 -1.281,-1.14 -0.049,10e-4 -0.137,-0.033 -0.147,0.016 0,0 -0.001,-10e-4 -0.001,0 0,0 0,0.001 0,0.002 -0.015,0.001 -0.425,0.153 -0.443,0.163 -0.197,0.115 -0.369,0.273 -0.485,0.47 -0.084,0.143 -0.104,0.288 -0.095,0.435 -0.054,-0.031 -0.108,-0.061 -0.162,-0.092 -0.234,-0.24 -0.722,-0.143 -1.091,0.217 -0.181,0.176 -0.298,0.383 -0.344,0.577 -0.35,-0.118 -0.703,-0.216 -1.042,-0.306 -0.001,0 -0.002,0.001 -0.003,0 0,0 0,-10e-4 0,-10e-4 0.092,-0.049 0.181,-0.1 0.268,-0.156 0.652,-0.421 1.231,-0.952 1.783,-1.497 0.229,-0.226 0.381,-0.519 0.54,-0.798 0.126,-0.221 0.236,-0.449 0.33,-0.683 z m 0.729,1.782 c -0.055,0.342 -0.082,0.915 -0.253,1.205 0.085,-0.402 0.17,-0.803 0.253,-1.205 z m 0.158,2.691 c 0.007,0.011 0.014,0.022 0.022,0.033 -0.025,10e-4 -0.067,10e-4 -0.086,10e-4 0.021,-0.01 0.042,-0.023 0.064,-0.034 z"
   fill="#dd796a"
   stroke="none"
   id="path334" />
</g>
<g
   opacity="1"
   id="g340">
<path
   d="m 198.176,495.3 c -1.16,0.015 -2.539,0.633 -3.682,1.761 -0.206,0.204 -0.395,0.416 -0.568,0.633 0.284,-0.26 0.616,-0.474 0.935,-0.69 0.322,-0.219 0.961,-0.651 1.13,-0.3 0.142,0.295 -0.231,0.891 -0.301,1.05 -0.159,0.366 -0.249,0.769 -0.47,1.102 -0.08,0.12 -0.26,0.124 -0.388,0.19 -0.039,0.021 -0.035,0.406 -0.079,0.466 -0.289,0.387 -0.62,0.557 -0.74,1.065 0.049,0.312 0.476,0.504 0.955,0.43 0.296,-0.046 0.542,-0.183 0.675,-0.355 0.138,0.041 0.311,0.052 0.23,0.094 -0.128,0.067 -0.423,0.051 -0.388,0.191 0.074,0.298 0.427,0.445 0.608,0.693 0.366,0.501 0.559,0.925 1.34,0.669 0.887,-0.29 1.727,-0.847 2.318,-1.569 0.484,-0.592 0.954,-1.24 1.169,-1.973 0.164,-0.557 0.077,-1.181 -0.077,-1.741 -0.114,-0.416 -0.582,-0.784 -0.914,-1.071 -0.44,-0.445 -1.057,-0.654 -1.753,-0.645 z m -4.25,2.394 c -0.102,0.093 -0.198,0.191 -0.285,0.298 -0.464,0.571 -0.917,1.193 -1.125,1.899 -0.158,0.533 -0.069,1.129 0.072,1.667 0.045,0.171 0.372,0.539 0.609,0.8 -0.906,-1.083 -0.578,-3.023 0.729,-4.664 z m -0.729,4.664 c 0.035,0.042 0.072,0.083 0.111,0.123 -0.031,-0.035 -0.073,-0.081 -0.111,-0.123 z"
   fill="#dd796a"
   stroke="none"
   id="path338" />
</g>
<g
   opacity="1"
   id="g344">
<path
   d="m 196.583,497.027 c -1.765,0.291 -0.056,0.996 -0.155,2.179 -0.042,0.507 -0.873,2.163 -1.546,1.944 -0.175,-0.057 0.226,-0.795 0.227,-0.797 0.162,-0.219 0.383,-0.387 0.574,-0.581 0.014,-0.014 0.081,-0.282 0.087,-0.294 0.401,-0.725 0.36,-2.091 -0.805,-2.072 -0.527,0.009 -0.607,0.06 -1.119,0.218 -0.754,0.232 -1.328,0.286 -2.119,0.296 -0.263,-0.113 -0.617,0.124 -0.79,0.529 -0.051,0.12 -0.08,0.24 -0.089,0.353 -0.138,0.107 -0.263,0.22 -0.365,0.332 -0.291,0.318 -0.565,0.661 -0.758,1.046 -1.12,2.229 1.175,3.618 2.921,4.152 1.311,0.707 3.255,-0.356 4.342,-2.373 1.087,-2.017 0.906,-4.226 -0.405,-4.932 z m -4.557,2.331 c 0.13,0.013 0.25,0.04 0.344,0.095 0.212,0.123 0.436,0.515 0.332,0.738 -0.02,0.042 -0.041,0.138 -0.08,0.113 -0.405,-0.259 -0.656,-0.497 -0.596,-0.946 z"
   fill="#dd796a"
   stroke="none"
   id="path342" />
</g>
<g
   opacity="1"
   id="g350">
<path
   d="m 183.719,484.938 c -0.775,0.042 -1.229,0.176 -1.219,0.374 0.09,1.832 -3.444,1.304 -5.25,1.626 l 19.875,-0.563 c 0.013,-0.082 0.104,-0.11 0.125,-0.187 -5.491,-0.763 -11.1,-1.383 -13.531,-1.25 z"
   fill="#dd796a"
   fill-rule="nonzero"
   stroke="none"
   id="path346" />
<path
   d="m 184.967,481.286 c -1.183,0.126 -2.562,0.319 -3.571,0.995 -0.522,0.35 -1.053,0.709 -1.531,1.121 -0.661,0.054 -1.417,0.107 -2.05,0.293 -0.315,0.092 -0.712,0.066 -0.939,0.303 -1.279,1.335 -2.943,2.547 -3.485,4.314 -0.238,0.776 0.998,1.291 1.598,1.838 0.132,0.12 0.35,0.072 0.526,0.099 0.385,0.06 0.824,0.052 1.276,0.012 0.652,0.067 1.412,-0.012 2.038,-0.037 1.096,-0.045 2.222,-0.26 3.274,-0.65 3.98,-0.451 7.948,-1.142 11.925,-1.624 0.918,-0.111 2.153,-0.118 3.052,-0.413 0.414,-0.136 0.668,-0.256 1.034,-0.592 0.125,-0.114 0.217,-0.258 0.31,-0.4 0.036,-0.046 0.072,-0.092 0.108,-0.138 0.006,-0.008 0.012,-0.023 0.015,-0.032 0.183,-0.689 0.332,-0.628 -0.084,-1.196 -0.281,-0.383 -1.358,-0.256 -1.762,-0.27 -1.01,-0.035 -2.02,-0.07 -3.029,-0.101 -0.226,-0.006 -0.45,-0.02 -0.674,-0.032 -0.03,-0.002 -0.105,-0.007 -0.129,-0.009 -2.156,-0.171 -4.315,-0.435 -6.474,-0.638 0.047,-1.373 -0.477,-2.517 -1.428,-2.843 z m -3.367,1.862 c 0.021,10e-4 0.033,0.013 0.029,0.041 -0.003,0.016 -0.141,0.038 -0.316,0.062 0.08,-0.03 0.224,-0.109 0.287,-0.103 z m -2.439,0.418 c 0.122,0.003 0.295,0.028 0.444,0.056 -0.115,-0.005 -0.23,-0.011 -0.345,-0.017 -0.079,-0.004 -0.278,0.047 -0.237,-0.021 0.01,-0.016 0.063,-0.021 0.138,-0.018 z m 16.919,3.754 c 0.005,0.001 0.01,0.002 0.015,0.004 0.071,0.019 0.281,0.056 0.209,0.07 -0.077,0.015 -0.154,-0.018 -0.224,-0.074 z"
   fill="#dd796a"
   stroke="none"
   id="path348" />
</g>
<g
   opacity="1"
   id="g356">
<path
   d="m 189.986,484.645 c -1.391,-3.505 -9.976,2.718 -11.285,-0.819 -0.474,-1.281 17.879,1.446 16.287,1.286 -0.73,-0.074 2.872,-1.341 1.987,0.079"
   fill="#dd796a"
   fill-rule="nonzero"
   stroke="none"
   id="path352" />
<path
   d="m 189.799,479.974 c -1.592,-0.004 -3.285,0.438 -4.652,0.885 -0.781,0.255 -1.523,0.593 -2.281,0.887 -2.015,-0.404 -4.08,-0.554 -5.769,0.868 -0.253,0.213 -0.494,0.461 -0.64,0.758 -0.202,0.411 -0.256,0.88 -0.384,1.32 -0.07,0.242 0.107,0.544 0.311,0.816 -0.131,0.144 -0.26,0.291 -0.381,0.446 -0.207,0.266 0.172,0.623 0.613,0.812 0.18,0.201 0.379,0.383 0.621,0.535 0.93,0.583 2.807,0.608 3.92,0.549 1.181,-0.062 2.4,-0.318 3.562,-0.549 0.347,-0.069 0.743,-0.176 1.13,-0.219 0.901,1.39 3.375,1.538 5.633,0.304 0.858,-0.469 1.564,-1.071 2.074,-1.721 0.174,0.026 0.349,0.05 0.523,0.077 0.101,0.016 0.236,0.038 0.339,0.056 0.053,0.009 0.204,0.059 0.159,0.03 -0.004,-0.003 -0.007,-0.006 -0.011,-0.009 0.452,0.082 0.905,-0.065 1.194,-0.474 0.132,-0.037 0.266,-0.066 0.404,-0.084 0.011,-0.001 0.027,0.003 0.042,0.005 0.075,0.224 0.364,0.409 0.727,0.439 0.436,0.035 0.808,-0.166 0.831,-0.45 0.984,-1.862 -1.366,-1.581 -2.68,-1.027 -0.239,-0.045 -0.487,-0.068 -0.733,-0.088 0.175,-0.641 0.142,-1.265 -0.149,-1.798 -0.923,-1.788 -2.598,-2.364 -4.403,-2.368 z m -3.708,7.091 c 0.138,-0.005 0.274,10e-4 0.404,0.024 0.108,0.02 -0.221,0.03 -0.328,0.005 -0.023,-0.006 -0.049,-0.016 -0.076,-0.029 z"
   fill="#dd796a"
   stroke="none"
   id="path354" />
</g>
<g
   opacity="1"
   id="g362">
<path
   d="m 196.4,487.803 c -0.772,-0.992 -0.765,-2.396 -1.228,-3.564"
   fill="#dd796a"
   fill-rule="nonzero"
   stroke="none"
   id="path358" />
<path
   d="m 195.427,483.541 c -0.166,0.007 -0.349,0.052 -0.527,0.139 -0.475,0.23 -0.739,0.668 -0.589,0.976 0.359,1.074 -0.35,1.554 -0.946,2.444 -0.725,1.082 -1.334,1.991 -1.002,3.319 0.939,1.449 3.508,1.452 5.737,0.008 2.23,-1.445 3.275,-3.792 2.336,-5.241 -1.403,-0.475 -3.738,0.64 -4.404,-1.365 -0.094,-0.193 -0.327,-0.29 -0.605,-0.28 z"
   fill="#dd796a"
   stroke="none"
   id="path360" />
</g>
<path
   d="m 194.75,484.281 c -0.6,0.672 1.078,1.724 2.406,2.281 0.006,-0.066 -0.042,-0.12 -0.031,-0.187 0.028,-0.173 0.19,-0.253 0.25,-0.406 z"
   fill="#dd796a"
   fill-rule="nonzero"
   opacity="1"
   stroke="#dd796a"
   stroke-linecap="round"
   stroke-linejoin="round"
   stroke-width="2.89452"
   id="path364" />
<path
   d="m 198.125,483.5 0.281,0.656 c -0.019,-0.336 -0.111,-0.753 -0.281,-0.656 z"
   fill="#dd796a"
   fill-rule="nonzero"
   opacity="1"
   stroke="#dd796a"
   stroke-linecap="round"
   stroke-linejoin="round"
   stroke-width="2.89452"
   id="path366" />
<path
   d="m 198.015,483.466 c -0.049,-0.873 -3.571,-0.471 -3.09,0.082"
   fill="#dd796a"
   fill-rule="nonzero"
   opacity="1"
   stroke="#dd796a"
   stroke-linecap="round"
   stroke-linejoin="round"
   stroke-width="2.89452"
   id="path368" />
<path
   d="m 196.984,484.162 c -0.781,-0.212 -3.02,1.536 -3.7,1.924"
   fill="#dd796a"
   fill-rule="nonzero"
   opacity="1"
   stroke="#dd796a"
   stroke-linecap="round"
   stroke-linejoin="round"
   stroke-width="2.89452"
   id="path370" />
<path
   d="m 196.981,487.364 c 0.207,-0.181 -1.864,1.799 -2.393,2.307"
   fill="#dd796a"
   fill-rule="nonzero"
   opacity="1"
   stroke="#dd796a"
   stroke-linecap="round"
   stroke-linejoin="round"
   stroke-width="2.89452"
   id="path372" />
<path
   d="m 256.768,486.62 c 0.357,-0.446 -2.812,-19.124 -1.112,-7.655"
   fill="#dd796a"
   fill-rule="nonzero"
   opacity="1"
   stroke="#dd796a"
   stroke-linecap="round"
   stroke-linejoin="round"
   stroke-width="2.89452"
   id="path374" />
<path
   d="m 256.851,474.436 c -0.917,-2.319 4.145,-1.856 5.58,-1.78 1.957,0.104 -2.332,3.893 -4.287,4.023 -4.92,0.328 11.27,-5.073 10.742,-0.734 -0.415,3.416 -12.114,5.394 -9.962,2.708 0.909,-1.135 3.763,-1.425 5.071,-1.477 10.394,-0.413 -3.357,5.905 -6.003,2.862 -2.483,-2.857 17.321,-1.175 6.655,0.447 -5.371,0.817 -8.571,-1.877 -1.475,-2.282 15.697,-0.896 -5.58,5.911 -4.595,1.326 0.052,-0.242 0.345,-0.419 0.524,-0.521 6.636,-3.755 -3.32,-2.708 7.689,-0.091 3.94,0.937 -15.783,0.895 -7.007,0.016 0.651,-0.065 1.546,-0.173 2.19,-0.163 17.939,0.256 -4.555,5.649 -3.341,3.306 1.022,-1.973 11.221,-1.118 11.923,0.851 0.5,1.401 -11.067,2.226 -12.095,0.095 -0.254,-0.528 13.258,-0.5 11.659,2.378 -1.289,2.32 -8.941,0.685 -10.617,-0.443 -1.042,-0.701 11.959,1.328 8.415,2.284 -9.86,2.658 -10.466,-6.134 -1.374,0.053 2.294,1.561 -11.476,-1.509 -4.003,-0.543 12.277,1.586 -12.171,-2.592 0.032,0.292 1.474,0.348 2.587,4.56 1.079,4.415 -11.339,-1.091 10.53,0.972 0.272,1.833 -2.46,0.207 -8.681,3.427 -6.267,3.946 3.326,0.715 20.522,-16.454 23.61,-13.276 0.566,0.582 -16.599,8.599 -17.192,9.806 -3.011,6.13 13.385,-12.607 18.715,-8.338 3.599,2.883 -10.711,11.583 -11.861,7.117 -0.875,-3.398 11.168,-7.683 7.693,-7.188 -7.943,1.13 3.674,-4.373 -1.318,-7.731 -2.429,-1.634 5.262,-2.898 8.171,-3.22 4.948,-0.547 -6.846,0.469 -8.115,0.602 -5.287,0.553 2.743,-1.251 4.299,-1.866 6.341,-2.506 1.767,-1.531 -2.112,-0.643 -7.621,1.744 5.713,-2.919 3.759,-4.073 -4.779,-2.822 -14.148,12.53 -15.081,7.059 -0.871,-5.114 16.839,-6.327 12.535,-9.222 -3.771,-2.537 -13.005,10.822 -12.05,6.379 1.021,-4.753 19.389,-9.7 5.631,-4.526 -1.135,0.426 4.181,-2.35 3.007,-2.048"
   fill="#dd796a"
   fill-rule="nonzero"
   opacity="1"
   stroke="#dd796a"
   stroke-linecap="round"
   stroke-linejoin="round"
   stroke-width="2.89452"
   id="path376" />
<path
   d="m 273.708,471.942 c 1.932,-0.965 -3.365,2.722 -5.179,3.895 -2.994,1.935 -13.638,0.884 -10.644,-1.052"
   fill="#dd796a"
   fill-rule="nonzero"
   opacity="1"
   stroke="#dd796a"
   stroke-linecap="round"
   stroke-linejoin="round"
   stroke-width="2.89452"
   id="path378" />
<path
   d="m 262.611,490.696 c 1.736,0.373 -5.487,-4.158 -3.75,-3.785"
   fill="#dd796a"
   fill-rule="nonzero"
   opacity="1"
   stroke="#dd796a"
   stroke-linecap="round"
   stroke-linejoin="round"
   stroke-width="2.89452"
   id="path380" />
<path
   d="m 258.758,488.125 c -0.252,-1.48 0.36,3.032 0.989,4.396"
   fill="#dd796a"
   fill-rule="nonzero"
   opacity="1"
   stroke="#dd796a"
   stroke-linecap="round"
   stroke-linejoin="round"
   stroke-width="2.89452"
   id="path382" />
<path
   d="m 259.017,489.131 c 0.029,-1.996 1.148,4.192 0.267,5.984"
   fill="#dd796a"
   fill-rule="nonzero"
   opacity="1"
   stroke="#dd796a"
   stroke-linecap="round"
   stroke-linejoin="round"
   stroke-width="2.89452"
   id="path384" />
<path
   d="m 259.046,491.8 c 0.377,0.081 -0.151,1.441 -0.224,1.631"
   fill="#dd796a"
   fill-rule="nonzero"
   opacity="1"
   stroke="#dd796a"
   stroke-linecap="round"
   stroke-linejoin="round"
   stroke-width="2.89452"
   id="path386" />
<path
   d="m 302.061,469.11 c -2.66,0.532 -24.921,12.999 -25.519,11.953 -3.744,-6.553 28.278,-4.958 21.271,-7.761 -6.848,-2.739 -15.604,7.11 -21.412,5.948 -6.409,-1.282 18.194,-11.3 19.004,-4.815 0.816,6.527 -11.378,8.185 -17.957,8.185 -6.435,0 18.184,-0.051 18.184,-6.486 0,-5.114 -15.921,0.7 -14.303,5.552 1.566,4.699 11.265,0.044 14.359,-3.824 3.144,-3.929 -16.601,1.012 -14.104,5.381 0.728,1.274 20.173,-7.47 3.936,-1.359 -1.379,0.519 5.793,-0.702 4.419,-0.17 -10.536,4.078 -7.125,2.234 1.246,0.142"
   fill="#dd796a"
   fill-rule="nonzero"
   opacity="1"
   stroke="#dd796a"
   stroke-linecap="round"
   stroke-linejoin="round"
   stroke-width="2.89452"
   id="path388" />
<path
   d="m 294.301,479.023 c -3.115,1.558 -16.092,8.252 -8.129,5.976"
   fill="#dd796a"
   fill-rule="nonzero"
   opacity="1"
   stroke="#dd796a"
   stroke-linecap="round"
   stroke-linejoin="round"
   stroke-width="2.89452"
   id="path390" />
<path
   d="m 292.828,478.768 c 4.565,-4.564 8.257,-16.916 13.793,-13.595 5.261,3.157 -11.017,13.755 -15.634,9.715 -2.343,-2.05 13.006,-11.977 15.407,-12.377 0.322,-0.053 -0.56,0.333 -0.849,0.482 -5.838,2.989 -11.87,5.129 -17.221,9.063 -0.451,0.332 -7.218,5.405 -7.279,5.24 -1.198,-3.296 14.148,-12.362 16.484,-13.454 2.276,-1.063 9.235,-1.285 7.081,-2.577 -2.942,-1.766 -13.476,5.122 -15.776,6.656 -1.987,1.324 -7.769,4.73 -5.381,4.73 1.802,0 19.233,-12.039 19.599,-13.199 0.516,-1.633 -22.216,12.462 -21.242,12.462 3.552,0 13.45,-9.703 17.192,-11.499 0.214,-0.103 5.486,-2.41 5.07,-2.945 -1.841,-2.367 -15.717,6.059 -17.305,7.08 -1.897,1.219 -5.985,6.209 -5.438,4.022 1.64,-6.56 18.35,-7.49 19.344,-12.462 1.512,-7.558 -20.251,18.867 -20.251,11.159 0,-5.167 13.94,-9.389 16.569,-11.47 3.208,-2.54 -7.788,2.751 -11.216,4.984 -11.704,7.628 -4.944,3.045 -6.542,4.504"
   fill="#dd796a"
   fill-rule="nonzero"
   opacity="1"
   stroke="#dd796a"
   stroke-linecap="round"
   stroke-linejoin="round"
   stroke-width="2.89452"
   id="path392" />
<path
   d="m 330.248,432.438 c 2.07,-6.079 -8.792,6.909 -10.651,8.768 -8.189,8.188 -20.383,24.355 -32.411,27.027 -4.135,0.918 6.401,-5.548 9.535,-8.397 7.368,-6.697 14.715,-12.713 23.116,-18.105 3.741,-2.401 14.963,-6.946 10.651,-8.025 -11.301,-2.826 -31.578,27.606 -42.143,31.378 -6.151,2.196 9.047,-9.454 14.019,-13.689 5.278,-4.495 10.582,-8.953 15.899,-13.404 2.811,-2.352 11.381,-7.653 7.72,-7.828 -4.729,-0.226 -29.894,24.025 -31.143,29.017 -3.2,12.795 30.963,-38.583 30.334,-25.409 -0.28,5.862 -17.211,16.676 -21.214,20.161 -3.56,3.099 -11.905,13.785 -10.76,9.206 0.432,-1.728 23.132,-24.143 21.302,-24.6 -2.841,-0.711 -18.954,19.444 -16.119,16.137 3.103,-3.619 -8.497,2.928 -9.731,3.979 -2.755,2.347 17.201,-11.857 10.65,-7.653 -1.675,1.076 -3.487,2.353 -4.855,3.805 -0.412,0.437 -2.775,2.898 -1.728,3.564 8.713,5.546 27.477,-24.543 34.86,-22.696 14.109,3.529 -38.93,17.77 -31.449,30.241 8.532,14.223 37.682,-32.493 37.682,-32.493 0,0 -45.741,25.564 -32.084,32.035 5.728,2.713 21.73,-22.791 27.316,-24.491 12.74,-3.876 -40.005,33.921 -27.732,28.755 10.869,-4.575 16.72,-20.793 27.841,-25.474 12.333,-5.192 -41.415,30.841 -28.234,28.535 7.009,-1.226 16.345,-14.056 21.476,-18.608 3.475,-3.082 10.26,-14.304 10.038,-9.665 -0.752,15.768 -50.262,40.11 -6.582,2.908"
   fill="#dd796a"
   fill-rule="nonzero"
   opacity="1"
   stroke="#dd796a"
   stroke-linecap="round"
   stroke-linejoin="round"
   stroke-width="2.89452"
   id="path394" />
<path
   d="m 313.631,465.457 c -4.763,5.557 -6.998,8.251 -2.019,3.62 6.574,-6.116 -13.733,7.764 -2.63,1.886"
   fill="#dd796a"
   fill-rule="nonzero"
   opacity="1"
   stroke="#dd796a"
   stroke-linecap="round"
   stroke-linejoin="round"
   stroke-width="2.89452"
   id="path396" />
<path
   d="m 297.236,317.751 c -0.764,2.483 -3.884,3.277 -5.742,1.462 l -28.199,-27.544 c -1.558,-1.523 -1.345,-4.089 0.445,-5.332 l 36.494,-25.365 c 0,0 11.671,-9.566 10.846,-3.898 l -0.986,9.052 -0.399,3.66 -0.375,3.44 -0.494,4.538 -0.393,3.604 c 0,0 -0.453,1.472 -1.013,3.29 -0.559,1.818 -1.225,3.983 -1.225,3.983 z"
   fill="#e9a297"
   fill-rule="nonzero"
   opacity="1"
   stroke="#e9a297"
   stroke-linecap="butt"
   stroke-linejoin="round"
   stroke-width="4"
   id="path398" />
<path
   d="m 198.159,481.068 c 0.008,0.004 0.016,0.008 0.023,0.012"
   fill="#dd796a"
   fill-rule="nonzero"
   opacity="1"
   stroke="#dd796a"
   stroke-linecap="round"
   stroke-linejoin="round"
   stroke-width="4"
   id="path400" />
<path
   d="m 197.262,481.455 c 0.31,0.005 0.692,1.472 0.769,1.717 1.419,4.547 0.933,-0.237 -0.142,-1.729"
   fill="#dd796a"
   fill-rule="nonzero"
   opacity="1"
   stroke="#dd796a"
   stroke-linecap="round"
   stroke-linejoin="round"
   stroke-width="4"
   id="path402" />
<path
   d="m 66.2179,251.201 0.3895,16.68 11.6921,46.555 31.6415,-37.668 -28.8725,-19.752 z"
   fill="#e9a297"
   fill-rule="nonzero"
   opacity="1"
   stroke="#e9a297"
   stroke-linecap="butt"
   stroke-linejoin="round"
   stroke-width="4"
   id="path404" />
<g
   opacity="1"
   id="g410">
<path
   d="m 152.023,493.41 c -1.497,-0.57 4.481,2.468 3.273,3.522 -3.2,2.791 16.436,4.279 12.362,3.078 -2.687,-0.793 -5.439,-1.494 -8.155,-2.199 -8.412,-2.183 4.728,1.18 7.313,2.518 3.412,1.767 -7.3,-2.551 -11.102,-3.106 -3.273,-0.478 6.182,2.355 9.268,3.547 3.954,1.526 -9.229,-3.439 -6.215,-2.518 2.388,0.73 4.77,1.563 7.084,2.503 1.517,0.616 2.85,1.337 3.185,1.456 1.027,0.363 6.509,3.111 7.431,2.553 0.922,-0.558 -14.156,-3.937 -9.76,-2.84 1.316,0.328 0.589,0.13 1.967,0.464 1.9,0.46 10.098,3.596 11.62,2.705 3.998,-2.341 -17.006,-6.983 -13.205,-4.334 4.654,3.242 15.364,9.663 16.512,4.109 0.358,-1.732 -18.17,-6.242 -8.231,-3.255 6.574,1.977 14.738,4.084 3.713,1.109 -9.153,-2.47 5.716,4.8 7.958,4.4 0.144,-0.026 -0.266,-0.121 -0.398,-0.182 -20.518,-9.508 0.614,2.333 0.609,-0.053 -0.005,-2.301 -26.421,-8.299 -6.353,-2.662 3.289,0.925 -8.152,-3.641 -8.606,-2.99 -2.711,3.89 18.066,5.74 13.472,4.568 -8.846,-2.257 -10.453,-2.265 -0.858,1.025 1.052,0.36 -4.098,-1.667 -3.011,-1.431 0.845,0.184 9.937,2.303 9.434,0.705 -2.377,-7.57 -1.283,0.154 -1.51,0.045 -5.18,-2.482 6.919,-3.252 6.61,1.266 -0.048,0.706 -6.654,-2.513 -6.316,-3.4 0.263,-0.691 6.066,3.212 5.441,3.697 -1.698,1.316 -7.95,-3.371 -3.469,-0.843 2.151,1.214 -9.31,-1.501 -7.011,-2.404 4.886,-1.918 16.462,-4.034 15.704,1.16 -0.213,1.458 -17.904,-1.245 -15.288,-0.25"
   fill="#dd796a"
   fill-rule="nonzero"
   stroke="none"
   id="path406" />
<path
   d="m 152.269,491.972 c -0.464,0.024 -0.916,0.202 -1.326,0.523 -0.145,0.113 -0.274,0.244 -0.401,0.377 -0.057,0.059 -0.213,0.173 -0.168,0.204 -0.142,0.029 -0.259,0.725 -0.254,0.845 0.028,0.656 0.861,0.991 1.296,1.277 0.459,0.302 0.917,0.608 1.351,0.945 0.402,0.312 0.527,0.423 0.865,0.782 0.006,0.007 0.013,0.026 0.02,0.036 -0.206,0.464 -0.38,1.063 -0.364,1.245 0.088,1.009 1.242,1.528 2.056,1.842 2.35,0.907 4.979,1.297 7.526,1.524 0.1,0.035 0.198,0.073 0.297,0.109 0.332,0.145 0.895,0.403 1.43,0.56 0.007,0.042 0.011,0.082 0.023,0.127 0.126,0.467 1.005,0.549 1.311,0.624 0.969,0.238 1.945,0.433 2.898,0.73 0.23,0.072 0.462,0.151 0.692,0.226 0.422,0.183 0.843,0.368 1.267,0.548 0.516,0.293 1.037,0.579 1.564,0.853 0.877,0.456 1.769,0.889 2.681,1.273 2.301,0.97 6.151,2.109 8.272,0.407 0.217,0.075 0.434,0.146 0.652,0.216 0.157,0.053 0.315,0.104 0.474,0.152 0.03,0.009 0.061,0.019 0.091,0.028 0.711,0.215 1.552,0.486 2.309,0.374 0.324,-0.048 0.628,-0.193 0.845,-0.449 0.006,-0.007 0.019,-0.021 0.027,-0.03 0.025,-0.028 0.054,-0.051 0.077,-0.081 0.051,-0.056 0.095,-0.109 0.079,-0.128 0.003,-0.004 0.003,-0.009 0.005,-0.013 0.016,-0.014 0.026,-0.036 0.031,-0.067 0.021,-0.052 0.038,-0.107 0.051,-0.165 0.44,0.051 0.881,0.084 1.323,0.104 0.068,0.017 0.136,0.037 0.204,0.053 0.505,0.121 1.015,0.232 1.527,0.319 0.251,0.043 0.505,0.082 0.759,0.101 0.06,0.004 0.123,0.008 0.185,0.01 0.835,0.425 1.761,0.785 2.672,0.771 0.325,-0.005 1.014,-0.126 1.241,-0.469 0.43,0.062 0.78,0.002 0.872,-0.32 0.115,-0.401 0.051,-0.789 -0.107,-1.149 0.393,0.018 0.786,0.04 1.179,0.05 1.21,0.031 3.435,0.298 3.344,-1.438 -0.097,-1.838 -1.99,-2.497 -3.548,-2.705 -2.351,-0.312 -4.819,-0.025 -7.183,0.48 -0.108,-0.128 -0.236,-0.211 -0.385,-0.184 -0.195,0.036 -0.333,0.172 -0.431,0.371 -0.539,0.127 -1.074,0.26 -1.596,0.401 -0.913,0.246 -1.819,0.525 -2.703,0.861 0.023,-0.161 0.025,-0.331 0.035,-0.489 0.004,-0.066 -0.127,-0.128 -0.302,-0.185 0.067,-0.035 -0.144,-0.051 -0.27,-0.074 -0.109,-0.029 -0.218,-0.06 -0.313,-0.086 -0.228,-0.062 -0.455,-0.123 -0.683,-0.184 -0.31,-0.086 -0.619,-0.174 -0.929,-0.262 -0.233,-0.1 -0.469,-0.199 -0.676,-0.286 -1.472,-0.615 -2.996,-1.123 -4.534,-1.578 -2.598,-0.936 -5.379,-1.591 -8.109,-1.885 -0.244,-0.2 -0.579,-0.306 -0.861,-0.387 -0.453,-0.13 -0.907,-0.256 -1.36,-0.383 -0.91,-0.257 -1.824,-0.506 -2.738,-0.748 -1.531,-0.405 -3.064,-0.799 -4.598,-1.195 -0.278,-0.072 -0.556,-0.144 -0.834,-0.216 -0.024,-0.006 -0.75,-0.23 -1.372,-0.346 0.001,0 -0.028,-0.01 -0.021,-0.007 0.002,0.001 0.008,0.004 0.01,0.005 -0.259,-0.048 -0.5,-0.082 -0.655,-0.061 -0.088,-0.363 -0.317,-0.709 -0.553,-0.966 -0.654,-0.714 -1.444,-1.277 -2.243,-1.815 -0.243,-0.164 -0.49,-0.323 -0.735,-0.484 -0.066,-0.044 -0.203,-0.135 -0.284,-0.192 -0.044,-0.075 -0.096,-0.142 -0.163,-0.198 -0.281,-0.099 -0.564,-0.142 -0.842,-0.128 z m 1.125,0.705 c 0.059,0.202 0.058,0.437 -0.104,0.776 -0.025,0.053 -0.034,0.157 -0.088,0.154 0.157,-0.324 0.223,-0.65 0.192,-0.93 z m 17.611,8.865 c 0.182,0.04 0.362,0.089 0.543,0.132 -0.009,0.028 -0.015,0.056 -0.022,0.083 -0.04,-0.01 -0.079,-0.02 -0.118,-0.03 -0.135,-0.061 -0.269,-0.124 -0.403,-0.185 z m 1.636,0.402 c 0.045,0.012 0.091,0.022 0.136,0.034 -0.006,0.031 -0.014,0.062 -0.018,0.091 -0.029,-0.008 -0.058,-0.015 -0.088,-0.023 -0.013,-0.033 -0.021,-0.067 -0.03,-0.102 z m 22.398,0.673 c 0.772,-0.007 1.52,0.032 2.227,0.126 0.987,0.131 2.177,0.404 2.815,1.253 0.246,0.327 0.376,0.72 0.398,1.127 0.002,0.039 -0.059,0.388 -0.04,0.5 -0.017,0.009 -0.035,0.02 -0.047,0.023 -0.121,0.034 -0.242,0.053 -0.367,0.07 -0.395,0.053 -0.795,0.066 -1.193,0.07 -0.857,0.01 -1.714,-0.031 -2.569,-0.083 -0.343,-0.424 -0.798,-0.774 -1.219,-0.993 -1.152,-0.601 -2.532,-0.863 -3.868,-0.842 -0.076,-0.028 -0.15,-0.059 -0.224,-0.08 -0.038,-0.086 -0.09,-0.198 -0.119,-0.27 -0.04,-0.095 -0.104,-0.259 -0.179,-0.428 1.472,-0.282 2.968,-0.46 4.385,-0.473 z m -5.587,0.719 c -0.041,0.225 -0.06,0.478 -0.064,0.741 -0.391,0.106 -0.786,0.286 -1.027,0.596 -0.085,0.11 -0.121,0.231 -0.125,0.356 -0.447,-0.038 -0.894,-0.073 -1.341,-0.109 -0.355,-0.027 -0.838,-0.112 -1.258,-0.073 -0.063,-0.026 -0.157,-0.067 -0.206,-0.088 -0.071,-0.03 -0.144,-0.056 -0.216,-0.086 1.272,-0.518 2.722,-0.983 4.237,-1.337 z m 0.657,0.327 c 0.013,0.028 0.024,0.058 0.037,0.086 -0.012,0.005 -0.026,0.005 -0.037,0.01 -0.001,-0.032 0,-0.064 0,-0.096 z m 2.391,0.893 c 0.379,0.07 0.724,0.152 0.997,0.233 0.584,0.174 1.219,0.445 1.719,0.849 -0.428,-0.03 -0.856,-0.071 -1.284,-0.106 -0.161,-0.113 -0.318,-0.224 -0.5,-0.35 -0.185,-0.127 -0.531,-0.372 -0.932,-0.626 z m -3.102,0.015 c 0.008,0.196 0.019,0.384 0.033,0.567 -0.167,-0.016 -0.335,-0.032 -0.503,-0.047 -0.079,-0.125 -0.094,-0.24 0.031,-0.319 0.129,-0.082 0.278,-0.148 0.439,-0.201 z m 1.943,0.131 c 0.408,0.22 0.806,0.462 1.196,0.715 -0.127,-0.011 -0.254,-0.02 -0.382,-0.032 -0.249,-0.147 -0.498,-0.295 -0.736,-0.46 -0.026,-0.075 -0.05,-0.149 -0.078,-0.223 z m -1.133,0.166 c 0.14,0.129 0.287,0.24 0.441,0.353 0.003,0.009 0.006,0.021 0.009,0.03 -0.135,-0.012 -0.271,-0.026 -0.407,-0.038 -0.01,-0.118 -0.027,-0.229 -0.043,-0.345 z m -3.218,0.64 c 0.393,0.031 0.812,0.062 1.093,0.087 0.124,0.01 0.248,0.022 0.372,0.033 0.395,0.547 1.216,0.96 1.59,0.607 0.111,-0.104 0.171,-0.26 0.2,-0.442 0.207,0.019 0.415,0.036 0.623,0.056 0.006,0.015 0.008,0.025 0.014,0.04 -0.31,-0.09 -0.613,-0.077 -0.703,0.284 -0.019,0.075 0.003,0.148 0.038,0.217 -0.243,0.014 -0.488,0.018 -0.734,0.007 -0.7,-0.172 -1.395,-0.369 -2.076,-0.599 -0.128,-0.101 -0.267,-0.199 -0.417,-0.29 z m 4.643,0.409 c 0.033,0.003 0.066,0.005 0.099,0.008 0.373,0.219 0.73,0.416 1.15,0.636 0.22,0.115 0.587,0.293 0.813,0.398 0.144,0.067 0.83,0.418 1.516,0.639 0.003,0.007 0.004,0.015 0.007,0.022 -0.117,0.036 -0.246,0.049 -0.364,0.05 -0.335,0.002 -0.664,-0.069 -0.985,-0.16 -0.415,-0.118 -0.802,-0.28 -1.179,-0.46 0.119,-0.307 -1.05,-0.811 -1.078,-0.826 -0.002,-10e-4 -0.006,-0.004 -0.008,-0.005 0.021,-0.095 0.03,-0.195 0.029,-0.302 z m -11.161,0.098 c 0.019,0.003 0.04,0.008 0.058,0.011 0.096,0.016 0.193,0.028 0.289,0.043 0.074,0.032 0.149,0.061 0.224,0.093 -0.257,-10e-4 -0.516,-0.029 -0.774,-0.07 0.069,-0.023 0.136,-0.051 0.203,-0.077 z m 12.949,0.062 c 0.029,0.003 0.058,0.006 0.087,0.008 0.026,0.019 0.054,0.036 0.08,0.054 0.036,0.027 0.07,0.056 0.106,0.082 -0.093,-0.046 -0.182,-0.097 -0.273,-0.144 z m 1.373,0.104 c 0.326,0.023 0.651,0.05 0.977,0.069 0.104,0.163 0.196,0.335 0.252,0.528 0.036,0.124 0.042,0.246 0.045,0.368 -0.071,0.004 -0.138,0.005 -0.192,-0.011 -0.032,-0.01 -0.068,-0.025 -0.102,-0.035 -0.244,-0.361 -0.705,-0.701 -0.98,-0.919 z"
   fill="#dd796a"
   stroke="none"
   id="path408" />
</g>
<g
   opacity="1"
   id="g416">
<path
   d="m 186.546,505.297 c -0.887,-0.482 2.047,-0.133 3.028,0.106 1.939,0.473 7.929,-0.031 5.972,-0.42"
   fill="#dd796a"
   fill-rule="nonzero"
   stroke="none"
   id="path412" />
<path
   d="m 187.339,503.696 c -0.1,0 -0.201,0.005 -0.302,0.014 -1.228,0.104 -3.313,1.753 -1.766,2.809 0.373,0.39 1.099,0.319 1.741,-0.125 0.141,0.002 0.282,0.004 0.411,0.003 0.724,-0.007 1.447,0.043 2.171,0.02 1.453,-0.047 2.886,-0.315 4.314,-0.569 0.644,-0.115 1.61,-0.05 2.163,-0.485 0.035,-0.028 0.16,-0.234 0.177,-0.265 0.055,-0.016 0.079,-0.026 0.012,-0.02 -0.011,0.001 -0.02,0.003 -0.031,0.004 0.152,-0.117 -0.06,-0.265 -0.491,-0.368 -0.097,-0.069 -0.261,-0.005 -0.367,0.144 -0.06,0.084 -0.087,0.175 -0.084,0.253 -0.426,0.071 -0.682,0.092 -1.152,0.075 -0.855,-0.032 -1.734,-0.159 -2.568,-0.347 -1.426,-0.32 -2.732,-1.154 -4.228,-1.143 z m 0.64,0.627 c 10e-4,0.002 0.004,0.004 0.005,0.006 0.033,0.044 0.047,0.119 0.052,0.205 -0.011,-0.074 -0.03,-0.145 -0.057,-0.211 z m -1.711,2.084 c -0.037,0.006 -0.072,0.01 -0.102,0.011 -0.035,0.002 0.049,-0.005 0.102,-0.011 z"
   fill="#dd796a"
   stroke="none"
   id="path414" />
</g>
<g
   opacity="1"
   id="g422">
<path
   d="m 199.441,506.79 c -6.553,2.403 1.583,0.311 -4.101,-0.758"
   fill="#dd796a"
   fill-rule="nonzero"
   stroke="none"
   id="path418" />
<path
   d="m 199.345,505.545 c -0.014,0 -0.028,10e-4 -0.042,0.003 -0.547,0.245 -1.056,0.507 -1.561,0.82 -0.062,-0.037 -0.127,-0.069 -0.194,-0.095 -0.271,-0.106 -0.565,-0.138 -0.844,-0.219 -0.393,-0.114 -0.78,-0.213 -1.181,-0.293 -0.097,-0.066 -0.259,0.002 -0.36,0.152 -0.101,0.15 -0.104,0.325 -0.006,0.391 0.414,0.083 0.938,0.136 1.304,0.366 0.089,0.056 0.253,0.183 0.344,0.318 -0.044,0.03 -0.087,0.06 -0.13,0.091 -0.226,0.158 -0.472,0.293 -0.654,0.503 -0.336,0.387 -0.412,1.001 0.212,1.126 0.264,0.052 0.546,-0.034 0.806,-0.182 -0.002,0.002 -0.004,0.003 -0.006,0.005 -0.046,0.039 0.12,-0.009 0.18,-0.016 0.193,-0.02 0.391,-0.029 0.58,-0.069 0.153,-0.033 0.308,-0.053 0.463,-0.074 0.185,-0.026 0.41,-0.087 0.589,-0.134 0.356,-0.094 0.365,-0.099 0.733,-0.205 0.447,-0.05 0.747,-0.646 0.67,-1.332 -0.073,-0.665 -0.473,-1.17 -0.903,-1.156 z m -2.485,1.557 c 0.01,0.038 0.012,0.076 0,0.111 -0.033,0.098 -0.401,0.05 -0.31,0.002 0.086,-0.046 0.194,-0.086 0.31,-0.113 z"
   fill="#dd796a"
   stroke="none"
   id="path420" />
</g>
<g
   opacity="1"
   id="g428">
<path
   d="m 191.776,507.653 c -3.294,-3.582 -2.069,-0.502 -6.312,-1.487"
   fill="#dd796a"
   fill-rule="nonzero"
   stroke="none"
   id="path424" />
<path
   d="m 190.088,505.01 c -0.171,-0.002 -0.344,0.013 -0.52,0.045 -0.725,0.136 -1.255,0.67 -1.947,0.893 -0.677,0.218 -1.292,0.087 -1.972,-0.054 -0.098,-0.066 -0.259,0.002 -0.361,0.152 -0.102,0.15 -0.106,0.325 -0.009,0.391 0.768,0.158 1.637,0.346 2.425,0.324 0.44,-0.012 0.867,-0.143 1.302,-0.146 0.075,-0.001 -0.019,0.157 0.014,0.224 0.089,0.179 0.22,0.3 0.325,0.464 0.316,0.489 0.619,0.96 0.976,1.427 0.387,0.523 1.352,0.465 2.156,-0.13 0.803,-0.595 1.141,-1.501 0.755,-2.024 -0.865,-0.76 -1.948,-1.555 -3.144,-1.566 z"
   fill="#dd796a"
   stroke="none"
   id="path426" />
</g>
<g
   opacity="1"
   id="g434">
<path
   d="m 190.23,507.339 c -1.082,-0.616 -2.769,-0.282 -4.011,-0.408"
   fill="#dd796a"
   fill-rule="nonzero"
   stroke="none"
   id="path430" />
<path
   d="m 190.437,505.911 c -1.385,-0.011 -2.626,0.816 -4.078,0.743 -0.099,-0.05 -0.242,0.033 -0.32,0.186 -0.077,0.153 -0.059,0.318 0.041,0.368 1.347,0.067 1.989,0.63 2.956,1.397 0.454,0.429 1.357,0.21 2.017,-0.49 0.659,-0.699 0.825,-1.613 0.371,-2.042 -0.339,-0.113 -0.667,-0.16 -0.987,-0.162 z"
   fill="#dd796a"
   stroke="none"
   id="path432" />
</g>
<g
   opacity="1"
   id="g440">
<path
   d="m 152.448,495.472 c -5.324,-3.71 5.476,4.675 -1.945,-0.496"
   fill="#dd796a"
   fill-rule="nonzero"
   stroke="none"
   id="path436" />
<path
   d="m 151.333,493.331 c -0.549,-0.004 -1.077,0.213 -1.554,0.81 -0.304,0.382 -0.423,0.822 -0.183,1.237 0.067,0.118 0.218,0.231 0.39,0.334 0.259,0.364 0.818,0.686 1.14,0.952 0.256,0.283 0.694,0.344 1.161,0.207 0.002,0 0.003,0.001 0.004,0.001 0.386,0.39 0.777,0.623 1.363,0.046 0.271,-0.267 0.192,-0.668 -0.009,-1.071 0.384,-0.571 0.455,-1.201 0.125,-1.567 -0.79,-0.461 -1.635,-0.942 -2.437,-0.949 z m 0.887,0.308 c 0.002,0 0.006,0.006 0.013,0.018 0.046,0.087 0.076,0.174 0.093,0.261 -0.056,-0.098 -0.117,-0.282 -0.106,-0.279 z"
   fill="#dd796a"
   stroke="none"
   id="path438" />
</g>
<g
   opacity="1"
   id="g446">
<path
   d="m 268.691,492.511 c 0.277,-0.502 0.732,1.401 0.245,1.703"
   fill="#dd796a"
   fill-rule="nonzero"
   stroke="none"
   id="path442" />
<path
   d="m 269.578,491.088 c -0.363,10e-4 -0.738,0.038 -1.074,0.176 -0.355,0.146 -0.647,0.416 -0.949,0.655 -0.099,0.078 -0.164,0.193 -0.246,0.29 -0.109,0.496 0.422,1.034 1.186,1.2 0.308,0.067 0.606,0.064 0.86,0.003 -0.245,0.147 -0.506,0.248 -0.801,0.303 0.209,0.123 0.319,0.261 0.157,0.377 -0.044,0.081 0.021,0.201 0.145,0.268 0.125,0.068 0.261,0.057 0.305,-0.024 0.191,-0.208 0.566,-0.759 0.844,-1.348 0,0 0,-10e-4 0,-10e-4 0.018,-0.031 0.033,-0.064 0.045,-0.097 0.394,-0.877 0.54,-1.803 -0.472,-1.802 z m -1.024,2.627 c -0.365,-0.214 -1.035,-0.383 -1.099,-0.317 -0.156,0.163 0.343,0.372 0.569,0.369 0.19,-0.003 0.365,-0.021 0.53,-0.052 z"
   fill="#dd796a"
   stroke="none"
   id="path444" />
</g>
<g
   opacity="1"
   id="g452">
<path
   d="m 269.625,493.391 c -0.664,-0.008 -1.368,0.43 -1.997,0.632"
   fill="#dd796a"
   fill-rule="nonzero"
   stroke="none"
   id="path448" />
<path
   d="m 270.085,492.011 c -0.543,0.154 -0.649,0.135 -1.138,0.52 -0.507,0.399 -0.722,1.016 -1.345,1.242 -0.089,0.01 -0.15,0.129 -0.136,0.266 0.014,0.138 0.098,0.242 0.187,0.233 0.963,-0.351 0.925,0.113 1.513,0.498 0.495,0.165 1.102,-0.319 1.356,-1.081 0.254,-0.762 0.058,-1.513 -0.437,-1.678 z"
   fill="#dd796a"
   stroke="none"
   id="path450" />
</g>
<g
   opacity="1"
   id="g458">
<path
   d="m 269.336,493.4 c -0.052,0.81 -0.865,0.788 -1.509,0.852"
   fill="#dd796a"
   fill-rule="nonzero"
   stroke="none"
   id="path454" />
<path
   d="m 269.608,492.265 c -0.162,0.002 -0.332,0.02 -0.503,0.057 -0.916,0.196 -1.556,0.838 -1.428,1.433 0.099,0.099 0.543,-0.337 0.723,-0.391 0.13,-0.039 0.425,-0.084 0.402,0.049 -0.068,0.391 -0.573,0.536 -0.884,0.563 -0.099,-0.033 -0.22,0.064 -0.271,0.217 -0.05,0.152 -0.01,0.302 0.089,0.335 0.462,-0.041 0.624,0.228 1.069,0.27 1.036,0.1 1.871,-0.899 2.189,-1.753 -0.103,-0.484 -0.681,-0.788 -1.386,-0.78 z"
   fill="#dd796a"
   stroke="none"
   id="path456" />
</g>
<g
   opacity="1"
   id="g464">
<path
   d="m 354.672,389.868 c 1.01,1.866 -1.662,15.154 -3.104,16.597"
   fill="#dd796a"
   fill-rule="nonzero"
   stroke="none"
   id="path460" />
<path
   d="m 355.255,388.517 c -0.357,10e-4 -0.759,0.104 -1.145,0.313 -0.882,0.477 -1.346,1.329 -1.035,1.902 0.497,0.896 0.238,2.478 0.245,3.443 0.022,3.125 -0.15,6.338 -0.841,9.389 -0.197,0.872 -0.53,2.098 -1.156,2.801 -0.036,0.089 0.045,0.205 0.18,0.26 0.136,0.055 0.275,0.028 0.31,-0.06 1.049,-1.207 1.394,-3.257 1.891,-4.689 1.039,-2.997 2.047,-6.078 2.619,-9.206 0.207,-1.135 0.391,-2.565 -0.054,-3.666 -0.174,-0.323 -0.556,-0.489 -1.014,-0.487 z"
   fill="#dd796a"
   stroke="none"
   id="path462" />
</g>
</g>
<g
   id="Layer-3"
   transform="translate(-54.006765,-219.0276)">
<path
   d="m 299.212,327.621 c 15.305,-7.652 32.127,-71.714 17.489,-82.692 -14.455,-10.842 -61.41,31.347 -70.764,40.701"
   fill="none"
   opacity="1"
   stroke="#000000"
   stroke-linecap="round"
   stroke-linejoin="round"
   stroke-width="4.23096"
   id="path467" />
<path
   d="m 354.86,348.405 c 3.512,3.273 25.37,-25.472 8.994,-32.952 -11,-5.024 -11.35,16.163 -1.41,16.114 20.172,-0.099 12.896,-29.577 -1.627,-33.856"
   fill="none"
   opacity="1"
   stroke="#000000"
   stroke-linecap="round"
   stroke-linejoin="round"
   stroke-width="4"
   id="path469" />
<path
   d="m 319.875,289.213 c 0.702,-3.197 10.021,10.47 14.022,15.089 8.155,9.415 14.529,25.119 17.96,36.946 12.185,41.998 3.926,81.006 -22.167,114.652"
   fill="none"
   opacity="1"
   stroke="#000000"
   stroke-linecap="round"
   stroke-linejoin="round"
   stroke-width="4.23096"
   id="path471" />
<path
   d="m 330.051,455.77 c 0.351,-0.002 -4.051,33.834 -4.983,37.772 -0.682,2.881 -2.886,9.739 -3.375,11.945 -0.002,0.005 -0.003,0.011 -0.004,0.017 m 0,0 c -0.008,0.036 -0.015,0.07 -0.022,0.104"
   fill="none"
   opacity="1"
   stroke="#000000"
   stroke-linecap="round"
   stroke-linejoin="round"
   stroke-width="4.23096"
   id="path473" />
<path
   d="m 321.668,506.679 c 1.287,3.806 -27.882,-0.064 -30.456,-0.052"
   fill="none"
   opacity="1"
   stroke="#000000"
   stroke-linecap="round"
   stroke-linejoin="round"
   stroke-width="4.23096"
   id="path475" />
<path
   d="m 290.579,506.393 c -1.224,-4.532 -2.212,-14.624 -4.644,-17.823"
   fill="none"
   opacity="1"
   stroke="#000000"
   stroke-linecap="round"
   stroke-linejoin="round"
   stroke-width="4.23096"
   id="path477" />
<path
   d="m 308.396,473.753 c -1.297,4.143 -35.849,21.56 -39.601,22.149 -4.854,0.763 -16.246,8.86 -14.045,4.468"
   fill="none"
   opacity="1"
   stroke="#000000"
   stroke-linecap="round"
   stroke-linejoin="round"
   stroke-width="4.23096"
   id="path479" />
<path
   d="m 256.928,489.118 c 0.463,0.018 -0.588,3.929 -0.72,4.526 -1.485,6.721 -3.95,13.091 -5.889,19.655 -0.817,2.768 -4.352,9.697 -4.788,9.763"
   fill="none"
   opacity="1"
   stroke="#000000"
   stroke-linecap="round"
   stroke-linejoin="round"
   stroke-width="4.23096"
   id="path481" />
<path
   d="m 244.847,524.001 c 0.161,0.032 0.295,0.064 0.405,0.096 m -0.06,0.467 c -1.891,0.526 -9.274,0.974 -12.241,1.46 -5.715,0.937 -21.334,0.861 -26.115,-3.941"
   fill="none"
   opacity="1"
   stroke="#000000"
   stroke-linecap="round"
   stroke-linejoin="round"
   stroke-width="4.23096"
   id="path483" />
<path
   d="m 206.988,521.649 c 0.149,-1.102 -3.319,-9.416 -4.145,-12.788 -0.151,-0.616 -0.306,-1.531 -0.473,-2.635 m -0.02,-0.135 c -0.779,-5.202 -1.811,-14.383 -3.822,-16.372"
   fill="none"
   opacity="1"
   stroke="#000000"
   stroke-linecap="round"
   stroke-linejoin="round"
   stroke-width="4.23096"
   id="path485" />
<path
   d="m 76.1043,318.577 c -28.9873,57.975 -14.8454,117.886 33.1867,157.912 10.105,8.421 81.337,43.399 93.163,29.953"
   fill="none"
   opacity="1"
   stroke="#000000"
   stroke-linecap="round"
   stroke-linejoin="round"
   stroke-width="4.23096"
   id="path487" />
<path
   d="m 100.87,471.177 c 0.182,0.442 0.377,1.238 0.433,1.435 3.678,12.995 1.413,32.307 8.922,43.34"
   fill="none"
   opacity="1"
   stroke="#000000"
   stroke-linecap="round"
   stroke-linejoin="round"
   stroke-width="4.23096"
   id="path489" />
<path
   d="m 146.632,498.173 c 1.562,2.294 0.755,20.248 -3.48,19.443"
   fill="none"
   opacity="1"
   stroke="#000000"
   stroke-linecap="round"
   stroke-linejoin="round"
   stroke-width="4.23096"
   id="path491" />
<path
   d="m 110.35,516.984 c 6.96,4.767 25.803,5.456 32.954,0.589"
   fill="none"
   opacity="1"
   stroke="#000000"
   stroke-linecap="round"
   stroke-linejoin="round"
   stroke-width="4.23096"
   id="path493" />
<path
   d="m 77.8122,315.344 c -1.6093,-2.705 -5.2074,-15.474 -7.0836,-20.477 -4.1264,-11.004 -11.9637,-36.822 -3.8503,-47.639 6.753,-9.004 46.9647,15.487 50.5757,22.71"
   fill="none"
   opacity="1"
   stroke="#000000"
   stroke-linecap="round"
   stroke-linejoin="round"
   stroke-width="4.23096"
   id="path495" />
<path
   d="m 76.5596,315.748 c 3.0762,-3.84 9.7762,-13.676 11.3695,-15.204 12.6089,-12.096 22.9529,-27.073 39.1299,-34.746 52.872,-25.078 93.545,-26.431 147.951,-7.031"
   fill="none"
   opacity="1"
   stroke="#000000"
   stroke-linecap="round"
   stroke-linejoin="round"
   stroke-width="4.23096"
   id="path497" />
<path
   d="m 122.033,426.69 c -38.5928,-6.437 -14.837,-55.008 14.231,-57.953 21.743,-2.203 58.637,22.676 40.637,47.421 -1.246,1.712 -7.662,8.732 -10.708,7.429"
   fill="none"
   opacity="1"
   stroke="#000000"
   stroke-linecap="round"
   stroke-linejoin="round"
   stroke-width="4.23096"
   id="path499" />
<path
   d="m 178.162,453.035 c -8.62,-28.027 -55.059,-32.875 -58.512,-0.58"
   fill="none"
   opacity="1"
   stroke="#000000"
   stroke-linecap="round"
   stroke-linejoin="round"
   stroke-width="4.23096"
   id="path501" />
<path
   d="m 204.889,335.066 c -8.996,-7.903 -25.022,-3.048 -32.115,-20.486"
   fill="none"
   opacity="1"
   stroke="#000000"
   stroke-linecap="round"
   stroke-linejoin="round"
   stroke-width="4.23096"
   id="path503" />
<path
   d="m 134.041,314.479 c 4.528,-0.759 -1.905,8.878 -2.287,9.352 -5.471,6.792 -21.076,14.723 -29.371,8.809"
   fill="none"
   opacity="1"
   stroke="#000000"
   stroke-linecap="round"
   stroke-linejoin="round"
   stroke-width="4.23096"
   id="path505" />
<path
   d="m 183.832,359.734 c -0.408,-0.34 0.448,-0.039 0.229,-0.323 -1.412,-1.832 -1.036,-4.372 -1.418,-6.642 -0.178,-1.062 0.585,-2.01 0.345,-3.114 -0.199,-0.916 2.131,-2.707 2.899,-2.525 5.939,1.402 7.762,13.81 2.969,17.153 -0.329,0.23 -1.747,0.056 -1.964,-0.254 -0.065,-0.093 -0.136,-0.311 -0.136,-0.311 0,0 1.121,0.844 0.738,1.011 -0.688,0.301 -3.165,-3.43 -3.282,-4.124 -0.158,-0.936 -0.462,-2.222 -0.414,-3.154 0.003,-0.043 -0.013,-0.396 -0.1,-0.4 -0.137,-0.007 -0.172,0.369 -0.176,0.447 -0.076,1.472 -0.444,2.88 0.448,4.25 0.056,0.087 0.908,1.341 0.598,1.369 -0.335,0.03 -0.86,-2.009 -0.916,-2.267 -0.382,-1.754 -1.134,-3.365 -1.435,-5.153 -0.083,-0.495 0.317,-1.407 0.344,-1.929"
   fill="none"
   opacity="1"
   stroke="#000000"
   stroke-linecap="round"
   stroke-linejoin="round"
   stroke-width="12.8845"
   id="path507" />
<path
   d="m 121.147,354.136 c -0.206,0.003 -0.164,-1.101 -0.185,-1.317 -0.128,-1.317 0.015,-2.896 0.398,-4.102 0.077,-0.242 0.746,-1.455 1.093,-1.061 0.395,0.448 1.284,1.119 1.449,1.694 0.617,2.144 0.552,6.518 -0.428,8.547 -0.171,0.355 -0.706,0.454 -0.854,0.785 -0.307,0.691 -0.623,1.675 -1.244,2.172 -0.339,0.271 -1.51,0.904 -1.794,0.814 -0.376,-0.12 -0.619,-0.579 -0.861,-0.853 -0.019,-0.021 -0.24,-0.275 -0.261,-0.209 -0.014,0.044 0.508,1.017 0.073,0.879 -0.995,-0.316 -1.555,-3.405 -1.41,-4.274 0.193,-1.151 -0.119,-2.405 0.073,-3.551 0.398,-2.376 2.532,-6.821 5.379,-5.915 0.596,0.189 0.908,1.844 0.959,2.368 0.004,0.046 0.044,0.334 0.095,0.333 0.239,-0.003 -0.046,-1.695 0.022,-1.73 0.135,-0.07 0.373,0.815 0.392,0.905 0.205,1.016 0.21,1.834 0.145,2.865 -0.138,2.194 0.042,7.208 -2.665,7.987 -0.662,0.19 -1.925,1.704 -2.737,0.69 -0.608,-0.761 -0.507,-1.718 -0.914,-2.506"
   fill="none"
   opacity="1"
   stroke="#000000"
   stroke-linecap="round"
   stroke-linejoin="round"
   stroke-width="12.8845"
   id="path509" />
<path
   d="m 153.463,400.948 c -0.316,0.052 -0.584,-0.968 -0.662,-1.196 -0.306,-0.902 -1.601,-4.199 0.561,-3.853 0.766,0.122 1.787,1.537 2.267,2.082 1.995,2.267 2.949,5.123 2.23,8.039 -0.297,1.206 -0.871,2.067 -2.147,2.411 -1.062,0.285 -2.129,-1.365 -2.763,-2.001 -2.366,-2.376 -2.986,-4.593 -2.876,-7.8 0.025,-0.744 0.406,-2.511 1.222,-2.789 1.138,-0.388 3.084,0.262 3.848,1.202 0.483,0.594 0.714,1.295 1.094,1.944 1.488,2.537 3.732,8.171 -0.367,9.462 -1.676,0.528 -1.993,-0.431 -2.99,-1.499 -1.649,-1.766 -3.043,-4.216 -2.749,-6.759 0.126,-1.089 -0.129,-2.574 1.165,-3.134 1.773,-0.766 3.538,3.915 3.859,4.895 0.19,0.584 0.265,0.778 0.402,1.372 0.058,0.248 0.569,1.938 0.287,2.143 -0.36,0.26 -1.322,-0.893 -1.509,-1.101 -0.753,-0.837 -3.225,-4.145 -1.69,-5.164 0.548,-0.364 1.36,0.304 1.721,0.646 1.095,1.039 1.58,2.727 1.793,4.173 0.045,0.306 0.253,1.086 -0.139,1.306 -0.281,0.158 -0.785,-0.044 -1.041,-0.138 -1.794,-0.662 -2.444,-2.354 -2.736,-4.129 -0.101,-0.611 -0.15,-1.655 0.588,-1.933 1.938,-0.73 3.443,3.922 3.693,5.1 0.12,0.563 0.355,1.608 -0.215,2.048 -0.559,0.431 -1.382,-0.561 -1.696,-0.893 -0.686,-0.726 -1.938,-4.825 -0.467,-5.122 1.619,-0.326 3.468,5.076 1.988,5.624 -2.272,0.84 -3.443,-3.895 -3.316,-5.361 0.05,-0.582 0.167,-1.996 0.955,-2.126 0.644,-0.106 1.036,0.94 1.199,1.373 0.469,1.242 0.713,2.644 0.764,3.967 0.015,0.388 0.076,1.094 -0.472,1.162 -1.771,0.219 -3.891,-5.248 -2.005,-6.263 1.555,-0.835 2.741,3.826 2.887,4.635 0.064,0.356 0.322,1.214 -0.161,1.443 -0.709,0.335 -1.404,-0.636 -1.709,-1.113 -0.478,-0.745 -1.585,-3.529 -0.659,-4.271 0.382,-0.306 0.764,0.61 0.863,0.809 0.223,0.449 1.587,3.477 0.528,3.475 -1.547,-0.004 -2.674,-2.678 -2.964,-3.893 -0.108,-0.452 -0.139,-0.96 0.035,-1.399 0.106,-0.265 0.564,-0.441 0.532,-0.397 -0.131,0.183 -0.724,-0.527 -0.788,-0.623 -0.182,-0.272 0.011,-1.324 -0.115,-1.374 -0.253,-0.1 -0.354,0.744 -0.731,0.806"
   fill="none"
   opacity="1"
   stroke="#000000"
   stroke-linecap="round"
   stroke-linejoin="round"
   stroke-width="2.89452"
   id="path511" />
<path
   d="m 123.357,402.135 c 0.071,0.013 0.07,0.001 0.083,-0.072 0.085,-0.458 0.682,-2.267 1.402,-1.897 0.76,0.39 -0.436,3.168 -1.157,2.468 -0.727,-0.706 0.136,-3.83 0.992,-3.375 1.13,0.601 0.106,3.258 -1.088,2.849 -1.535,-0.526 -0.014,-3.575 1.067,-3.116 0.974,0.414 -0.346,3.347 -1.412,3.28 -1.137,-0.072 -0.179,-3.626 0.879,-3.431 0.673,0.124 -0.195,2.988 -1.203,2.337 -0.611,-0.395 0.03,-1.763 0.282,-2.192 0.071,-0.12 0.544,-0.886 0.714,-0.639 0.033,0.047 -0.276,-0.212 -0.161,-0.643 0.129,-0.488 0.295,-1.173 0.585,-1.557 0.582,-0.771 1.756,-0.857 2.554,-0.352 3.752,2.369 0.495,10.423 -3.117,11.466 -0.537,0.155 -0.977,0.214 -1.34,0.191 m -0.657,-0.169 c -0.773,-0.396 -0.986,-1.437 -1.117,-2.806 -0.053,-0.549 -0.041,-1.091 -0.031,-1.636 0,-0.024 -0.012,-0.23 -0.027,-0.233 -0.005,-10e-4 -0.109,0.948 -0.111,0.979 -0.039,0.588 -0.147,2.321 0.648,2.468 0.075,0.014 -0.152,0.007 -0.226,-0.006 -0.141,-0.026 -0.229,-0.056 -0.341,-0.151 -0.464,-0.392 -0.292,-1.285 -0.3,-1.791 -0.031,-2.142 1.376,-4.101 2.601,-5.724 0.135,-0.18 1.492,-1.721 1.492,-1.723 -0.019,-0.316 -0.597,0.283 -0.783,0.539 -0.59,0.812 -1.137,1.552 -1.529,2.487 -0.427,1.019 -0.309,2.242 -0.506,3.307 -0.029,0.159 -0.197,0.936 -0.388,0.963 -0.005,0 -0.02,-0.317 -0.025,-0.338 -0.134,-0.556 -0.253,-1.084 -0.271,-1.663 -0.002,-0.064 0,-0.128 0,-0.193 0.007,-2.215 1.566,-3.081 2.686,-4.762 0.386,-0.579 0.723,-0.601 1.247,-0.961 0.131,-0.091 0.702,-0.342 0.606,-0.344 -0.885,-0.016 -1.898,3.4 -2.108,4.01 -0.165,0.481 -0.355,0.953 -0.543,1.425 -0.064,0.158 -0.295,0.608 -0.193,0.472 0.224,-0.297 0.319,-0.837 0.463,-1.176 0.403,-0.951 0.836,-1.901 1.341,-2.802 0.169,-0.3 0.531,-0.933 0.98,-0.748 1.127,0.463 0.276,3.699 -0.054,4.372 -0.075,0.152 -0.496,1 -0.827,0.776 -0.669,-0.453 0.321,-3.017 0.597,-3.518 0.117,-0.211 0.502,-0.834 0.847,-0.597 0.923,0.633 0.017,3.542 -0.391,4.204 -0.154,0.25 -0.501,0.846 -0.897,0.676 -0.776,-0.334 0.14,-4.466 1.424,-3.909 1.577,0.685 -0.268,4.908 -0.744,5.735 -0.211,0.366 -0.846,1.646 -1.46,1.448 -1.142,-0.369 0.665,-3.681 1.051,-4.17 0,0 0.531,-0.716 0.696,-0.538 0.199,0.217 -0.119,1.029 -0.178,1.247 -0.203,0.744 -1.59,3.941 -2.789,3.236 -0.35,-0.206 -0.152,-0.99 -0.083,-1.26 0.292,-1.138 0.812,-2.342 1.565,-3.252 0.098,-0.118 0.803,-1.024 1.069,-0.661 0.466,0.636 -0.51,3.097 -0.92,3.651 -0.236,0.319 -0.79,0.883 -1.249,0.593 -0.571,-0.36 -0.258,-1.558 -0.149,-2.043 0.299,-1.329 0.826,-2.662 1.673,-3.74 0.242,-0.308 0.684,-0.867 1.163,-0.697 1.569,0.558 0.597,3.299 -0.089,4.085 -0.258,0.296 -0.839,0.873 -1.273,0.536 -1.193,-0.924 -0.321,-4.589 0.309,-5.657 0.231,-0.392 0.678,-1.126 1.232,-1.069 1.051,0.108 1.845,4.176 0.465,4.03 -0.783,-0.084 -2.04,-4.673 -0.425,-4.724 1.273,-0.04 2.42,2.942 1.338,3.385 -0.925,0.379 -1.197,-4.035 -0.333,-3.322 0.648,0.535 1.371,3.959 0.64,4.413 -0.667,0.413 -0.84,-3.02 0.07,-2.371 0.762,0.543 -0.172,3.509 -0.552,4.122 -0.14,0.228 -0.615,0.913 -0.965,0.768 -0.668,-0.274 0.536,-3.627 1.236,-2.611 0.85,1.236 -0.84,3.687 -1.532,4.59 -0.161,0.21 -0.973,1.205 -1.381,0.832 -0.725,-0.664 0.902,-2.343 1.543,-1.801 0.314,0.266 -0.137,1.124 -0.265,1.336 -0.322,0.533 -2.316,2.388 -3.076,1.85 -0.609,-0.43 1.304,-1.846 1.623,-1.383 0.436,0.635 -0.924,2.198 -1.73,1.959 -0.729,-0.215 0.225,-1.778 0.891,-1.307 0.27,0.191 -0.353,1.022 -0.923,1.375 m -0.781,-0.2 c -0.027,-0.167 -0.017,-0.4 0.04,-0.712"
   fill="none"
   opacity="1"
   stroke="#000000"
   stroke-linecap="round"
   stroke-linejoin="round"
   stroke-width="2.89452"
   id="path513" />
<path
   d="m 328.062,455.094 -19.374,17.718 c 0.009,0.013 0.025,0.013 0.031,0.032 0.167,0.186 0.257,0.417 0.093,0.656 -0.078,0.115 -0.209,0.222 -0.312,0.281 -0.086,0.05 -0.157,-0.058 -0.25,-0.062 -0.046,0.015 -0.017,0.006 -0.094,0.031 -0.116,-0.052 -0.058,-0.061 -0.125,-0.094 -0.009,-0.005 -0.022,0.006 -0.031,0 -0.048,0.003 -0.076,0.076 -0.125,0.063 -0.04,-0.011 -0.046,-0.059 -0.063,-0.094 L 303,478 c 9.795,-4.897 17.414,-15.258 25.062,-22.906 z"
   fill="#dd796a"
   fill-rule="nonzero"
   opacity="1"
   stroke="#000000"
   stroke-linecap="round"
   stroke-linejoin="round"
   stroke-width="4"
   id="path515" />
</g>
<g
   id="Layer-5"
   transform="translate(-54.006765,-219.0276)">
<path
   d="m 170.493,270.291 4.521,-3.285 7.192,-3.038 11.427,-3.882 12.98,-3.111 11.173,-1.696 h 10.291 7.332 l 6.583,1.413"
   fill="none"
   opacity="1"
   stroke="#000000"
   stroke-linecap="round"
   stroke-linejoin="round"
   stroke-width="4.54604"
   id="path518" />
<path
   d="m 183.526,272.687 6.821,-3.784 6.639,-3.683 6.36,-2.435 7.754,-2.254 12.271,-2.34 18.621,-1.164"
   fill="none"
   opacity="1"
   stroke="#000000"
   stroke-linecap="round"
   stroke-linejoin="round"
   stroke-width="4"
   id="path520" />
<path
   d="m 182.206,272.795 -11.713,-2.504"
   fill="none"
   opacity="1"
   stroke="#000000"
   stroke-linecap="round"
   stroke-linejoin="round"
   stroke-width="4.1812"
   id="path522" />
<path
   d="m 181.329,268.954 c 0.468,-0.181 -0.389,-0.984 -0.055,-1.492 0.806,-1.226 2.577,0.269 2.162,1.407 -0.501,1.374 -3.227,-0.381 -3.062,-0.902 0.251,-0.796 2.664,-1.271 2.602,-0.016 -0.076,1.542 -3.718,0.981 -3.58,0.186 0.19,-1.098 3.075,-1.31 2.955,-0.048 -0.165,1.737 -2.903,2.134 -4.188,1.985 -0.621,-0.071 -1.324,-0.222 -1.846,-0.59 -0.059,-0.042 -0.21,-0.093 -0.161,-0.146 0.272,-0.3 2.133,-0.267 2.386,-0.036 0.071,0.064 -0.874,0.048 -0.922,0.043 -0.623,-0.059 -1.232,-0.229 -1.849,-0.328 -0.251,-0.04 -0.954,0.09 -0.758,-0.072 0.662,-0.547 2.556,-0.37 3.349,-0.513 2.239,-0.403 4.5,-0.73 6.719,-1.243 3.022,-0.699 5.879,-2.02 8.668,-3.353 1.249,-0.597 2.414,-1.354 3.752,-1.765 2.321,-0.712 4.724,-0.731 7.04,-1.627 2.06,-0.797 3.901,-1.306 6.065,-1.721 0.298,-0.057 1.902,-0.239 1.941,-0.646 0.047,-0.5 -1.734,-0.274 -1.922,-0.248 -1.906,0.265 -3.494,1.424 -5.176,2.263 -3.818,1.904 -8.149,2.038 -12.13,3.441 -1.389,0.489 -2.622,1.185 -3.934,1.835 -0.408,0.202 -0.82,0.404 -1.218,0.627 -0.156,0.088 -0.648,0.304 -0.481,0.239 1.26,-0.488 2.585,-0.775 3.872,-1.185 0.921,-0.294 1.836,-0.559 2.782,-0.764 0.66,-0.142 2.444,-0.164 2.955,-0.725 0.127,-0.14 -0.38,0.003 -0.57,0.012 -0.531,0.025 -0.68,0.084 -1.222,0.212 -0.86,0.203 -1.684,0.485 -2.521,0.766 -2.454,0.823 -5.104,1.639 -7.415,2.816 -0.378,0.193 -3.615,2.277 -3.919,2.143 -0.317,-0.141 1.009,-1.593 1.122,-1.686 1.359,-1.124 3.17,-1.657 4.866,-1.987 0.086,-0.017 1.695,-0.34 1.729,-0.252 0.073,0.19 -1.144,1.42 -1.283,1.54 -1.357,1.178 -3.066,1.627 -4.81,1.861 -0.157,0.021 -1.564,0.274 -1.646,0.063 -0.2,-0.518 2.947,-2.027 3.287,-2.159 3.77,-1.458 7.632,-2.639 11.405,-4.099 1.003,-0.388 3.665,-1.49 4.689,-1.501 0.981,-0.01 1.778,0.13 2.739,-0.068 0.824,-0.171 1.599,-0.688 2.405,-0.931 1.019,-0.306 2.007,-0.652 3.055,-0.869 0.323,-0.066 0.645,-0.136 0.961,-0.215 0.141,-0.035 0.516,-0.059 0.408,-0.158 -0.191,-0.174 -1.046,-0.055 -1.282,-0.078 -2.063,-0.195 -3.912,0.389 -5.797,1.2 -0.72,0.309 -1.399,0.733 -2.055,1.16 -0.036,0.023 -0.868,0.632 -0.785,0.669 0.363,0.161 4.195,-1.542 4.755,-1.735 0.374,-0.129 0.794,-0.244 1.187,-0.303 0.167,-0.025 0.575,-0.194 0.506,-0.04 -0.037,0.085 -2.668,0.644 -2.863,0.691 -2.523,0.608 -4.981,1.223 -7.381,2.229 -1.125,0.472 -2.208,1.058 -3.281,1.635 -0.289,0.155 -0.567,0.329 -0.855,0.487 -0.157,0.086 -0.602,0.371 -0.481,0.238 0.802,-0.882 2.63,-1.221 3.739,-1.394 0.527,-0.082 1.138,-0.145 1.673,-0.125 0.036,10e-4 0.123,-0.023 0.108,0.01 -0.109,0.246 -1.594,0.617 -1.815,0.702 -1.836,0.71 -3.759,1.161 -5.632,1.761 -0.835,0.268 -1.67,0.542 -2.503,0.812 -0.236,0.077 -0.936,0.27 -0.734,0.128 0.883,-0.623 2.168,-1.103 3.145,-1.582 0.467,-0.229 0.902,-0.423 1.407,-0.544 0.149,-0.037 0.574,-0.127 0.461,-0.022 -0.622,0.578 -2.568,0.78 -3.355,1.037 -2.927,0.954 -6.163,2.641 -9.284,2.705 -0.689,0.014 -1.99,0.194 -2.544,-0.373 -1.331,-1.361 3.623,-1.996 3.937,0.199 0.205,1.431 -4.996,1.382 -5.619,0.713 -0.645,-0.693 3.177,-0.553 3.599,0.538"
   fill="none"
   opacity="1"
   stroke="#000000"
   stroke-linecap="round"
   stroke-linejoin="round"
   stroke-width="4.1812"
   id="path524" />
</g>
</svg>
